<svg width="95" height="95" viewBox="0 0 95 95" fill="none" xmlns="http://www.w3.org/2000/svg">
<g clip-path="url(#clip0_218_359)">
<path d="M49.4792 63.332H15.8333C14.7835 63.332 13.7767 62.915 13.0344 62.1727C12.292 61.4303 11.875 60.4235 11.875 59.3737V19.7904C11.875 18.7405 12.292 17.7337 13.0344 16.9914C13.7767 16.2491 14.7835 15.832 15.8333 15.832H79.1667C80.2165 15.832 81.2233 16.2491 81.9656 16.9914C82.708 17.7337 83.125 18.7405 83.125 19.7904V51.457" stroke="#2C3E50" stroke-width="4" stroke-linecap="round" stroke-linejoin="round"/>
<path d="M27.708 79.168H43.5413" stroke="#2C3E50" stroke-width="4" stroke-linecap="round" stroke-linejoin="round"/>
<path d="M35.625 63.332V79.1654" stroke="#2C3E50" stroke-width="4" stroke-linecap="round" stroke-linejoin="round"/>
<path d="M79.167 83.1263L87.0837 75.2096L79.167 67.293" stroke="#2C3E50" stroke-width="4" stroke-linecap="round" stroke-linejoin="round"/>
<path d="M67.2917 67.293L59.375 75.2096L67.2917 83.1263" stroke="#2C3E50" stroke-width="4" stroke-linecap="round" stroke-linejoin="round"/>
<rect x="19.9502" y="23.75" width="55.1" height="31.35" rx="6" fill="#D9D9D9"/>
</g>
<defs>
<clipPath id="clip0_218_359">
<rect width="95" height="95" fill="white"/>
</clipPath>
</defs>
</svg>
