<svg width="95" height="95" viewBox="0 0 95 95" fill="none" xmlns="http://www.w3.org/2000/svg">
<g clip-path="url(#clip0_218_368)">
<path d="M38.7324 23.75L71.2501 56.2677L63.1197 64.3981C61.0001 66.6025 58.4622 68.3621 55.6544 69.5738C52.8466 70.7855 49.8254 71.4251 46.7674 71.4551C43.7095 71.4851 40.6763 70.9049 37.8452 69.7485C35.0142 68.592 32.4423 66.8826 30.2799 64.7202C28.1175 62.5578 26.4081 59.9859 25.2517 57.1549C24.0952 54.3239 23.5151 51.2906 23.5451 48.2327C23.575 45.1747 24.2146 42.1535 25.4263 39.3457C26.6381 36.5379 28.3976 34 30.602 31.8804L38.7324 23.75Z" fill="#D9D9D9" stroke="#2C3E50" stroke-width="4" stroke-linecap="round" stroke-linejoin="round"/>
<path d="M15.833 79.1667L29.6872 65.3125" stroke="#2C3E50" stroke-width="4" stroke-linecap="round" stroke-linejoin="round"/>
<path d="M59.3747 15.834L45.5205 29.6882" stroke="#2C3E50" stroke-width="4" stroke-linecap="round" stroke-linejoin="round"/>
<path d="M79.1667 35.625L65.3125 49.4792" stroke="#2C3E50" stroke-width="4" stroke-linecap="round" stroke-linejoin="round"/>
</g>
<defs>
<clipPath id="clip0_218_368">
<rect width="95" height="95" fill="white"/>
</clipPath>
</defs>
</svg>
