<svg width="95" height="95" viewBox="0 0 95 95" fill="none" xmlns="http://www.w3.org/2000/svg">
<g clip-path="url(#clip0_218_382)">
<path d="M78.6719 24.8184C80.0323 25.5921 81.162 26.7144 81.9447 28.0696C82.7274 29.4249 83.1348 30.9642 83.125 32.5293V61.3618C83.125 64.564 81.3715 67.517 78.5412 69.0726L51.8225 85.9747C50.4979 86.7019 49.0111 87.0832 47.5 87.0832C45.9889 87.0832 44.5021 86.7019 43.1775 85.9747L16.4588 69.0726C15.074 68.3158 13.918 67.2009 13.1116 65.8445C12.3053 64.488 11.8782 62.9398 11.875 61.3618V32.5253C11.875 29.323 13.6285 26.3741 16.4588 24.8184L43.1775 9.06426C44.5413 8.31232 46.0733 7.91797 47.6306 7.91797C49.188 7.91797 50.72 8.31232 52.0838 9.06426L78.8025 24.8184H78.6719Z" stroke="#2C3E50" stroke-width="4" stroke-linecap="round" stroke-linejoin="round"/>
<path d="M61.3545 37.2954C62.5895 38.0079 63.3455 39.3339 63.3337 40.7629V53.7343C63.3337 55.1752 62.5539 56.5052 61.2951 57.2058L49.4201 64.8137C48.8327 65.1395 48.172 65.3104 47.5003 65.3104C46.8286 65.3104 46.168 65.1395 45.5805 64.8137L33.7055 57.2058C33.0869 56.8627 32.5715 56.3601 32.213 55.7503C31.8545 55.1405 31.6659 54.4457 31.667 53.7383V40.7629C31.667 39.3221 32.4468 37.9921 33.7016 37.2914L45.5766 30.206C46.8076 29.5173 48.3078 29.5173 49.5349 30.206L61.4099 37.2914H61.3545V37.2954Z" fill="#D9D9D9" stroke="#2C3E50" stroke-width="4" stroke-linecap="round" stroke-linejoin="round"/>
</g>
<defs>
<clipPath id="clip0_218_382">
<rect width="95" height="95" fill="white"/>
</clipPath>
</defs>
</svg>
