<svg width="53" height="53" viewBox="0 0 53 53" fill="none" xmlns="http://www.w3.org/2000/svg">
<g clip-path="url(#clip0_218_1679)">
<path d="M34.9798 5.58008H18.0198C16.1328 5.58008 14.5898 7.12301 14.5898 9.01008V43.9901C14.5898 45.8772 16.1328 47.4201 18.0198 47.4201H34.9798C36.8669 47.4201 38.4098 45.8772 38.4098 43.9901V9.01008C38.4098 7.12301 36.8669 5.58008 34.9798 5.58008ZM35.7898 43.9901C35.7898 44.435 35.4248 44.8001 34.9798 44.8001H18.0198C17.5749 44.8001 17.2098 44.435 17.2098 43.9901V42.1201H35.7898V43.9901ZM35.7898 39.5001H17.2098V13.5001H35.7898V39.5001ZM35.7898 10.8801H17.2098V9.01008C17.2098 8.56515 17.5749 8.20008 18.0198 8.20008H34.9798C35.4248 8.20008 35.7898 8.56515 35.7898 9.01008V10.8801Z" fill="#2C3E50" stroke="#2C3E50" stroke-width="0.5"/>
<path d="M426.12 -196.1V696.42H-519.4V-196.1H426.12ZM430.36 -200.34H-523.64V700.66H430.36V-200.34Z" fill="#0000FF"/>
</g>
<defs>
<clipPath id="clip0_218_1679">
<rect width="53" height="53" fill="white"/>
</clipPath>
</defs>
</svg>
