<svg width="45" height="45" viewBox="0 0 45 45" fill="none" xmlns="http://www.w3.org/2000/svg">
<path d="M30.9375 17.6258L14.0625 7.89453" stroke="#2C3E50" stroke-width="3" stroke-linecap="round" stroke-linejoin="round"/>
<path d="M39.375 29.9981V14.9981C39.3743 14.3405 39.2007 13.6946 38.8716 13.1253C38.5425 12.556 38.0695 12.0832 37.5 11.7544L24.375 4.25436C23.8049 3.92523 23.1583 3.75195 22.5 3.75195C21.8417 3.75195 21.1951 3.92523 20.625 4.25436L7.5 11.7544C6.93049 12.0832 6.45746 12.556 6.12837 13.1253C5.79927 13.6946 5.62567 14.3405 5.625 14.9981V29.9981C5.62567 30.6557 5.79927 31.3016 6.12837 31.8709C6.45746 32.4403 6.93049 32.9131 7.5 33.2419L20.625 40.7419C21.1951 41.071 21.8417 41.2443 22.5 41.2443C23.1583 41.2443 23.8049 41.071 24.375 40.7419L37.5 33.2419C38.0695 32.9131 38.5425 32.4403 38.8716 31.8709C39.2007 31.3016 39.3743 30.6557 39.375 29.9981Z" stroke="#2C3E50" stroke-width="3" stroke-linecap="round" stroke-linejoin="round"/>
<path d="M6.13135 13.0488L22.5001 22.5176L38.8688 13.0488" stroke="#2C3E50" stroke-width="3" stroke-linecap="round" stroke-linejoin="round"/>
<path d="M22.5 41.4V22.5" stroke="#2C3E50" stroke-width="3" stroke-linecap="round" stroke-linejoin="round"/>
</svg>
