<svg width="46" height="46" viewBox="0 0 46 46" fill="none" xmlns="http://www.w3.org/2000/svg">
<g clip-path="url(#clip0_218_1670)">
<path d="M11.5 36.875H11V37.375V41.6875V42.1875H11.5H34.5014H35.0016L35.0014 41.6873L35 37.3748L34.9998 36.875H34.5H11.5ZM32.8891 12.4375L32.8875 12.4375C32.702 12.4379 32.5205 12.3832 32.3662 12.2803C32.2118 12.1774 32.0915 12.031 32.0206 11.8596L31.5586 12.051L32.0206 11.8596C31.9496 11.6883 31.9311 11.4997 31.9675 11.3178C32.0039 11.1359 32.0935 10.9689 32.225 10.838L32.2258 10.8372L35.2747 7.7883C35.4505 7.61253 35.6889 7.51378 35.9375 7.51378C36.1861 7.51378 36.4245 7.61253 36.6003 7.7883C36.776 7.96408 36.8748 8.20248 36.8748 8.45106C36.8748 8.69965 36.776 8.93805 36.6003 9.11382L33.5513 12.1628L33.5508 12.1633C33.464 12.2503 33.3609 12.3193 33.2473 12.3664C33.1338 12.4135 33.012 12.4376 32.8891 12.4375ZM13.1125 12.4375L13.1109 12.4375C12.988 12.4376 12.8662 12.4135 12.7527 12.3664C12.6391 12.3193 12.536 12.2503 12.4492 12.1633L12.4487 12.1628L9.39974 9.11382L9.04619 9.46737L9.39974 9.11382C9.31271 9.02679 9.24367 8.92346 9.19656 8.80975C9.14946 8.69603 9.12522 8.57415 9.12522 8.45106C9.12522 8.32798 9.14946 8.2061 9.19656 8.09238C9.24367 7.97866 9.31271 7.87534 9.39974 7.7883L9.04782 7.43638L9.39974 7.7883C9.48678 7.70127 9.5901 7.63223 9.70382 7.58513L9.5173 7.13484L9.70382 7.58513C9.81753 7.53802 9.93941 7.51378 10.0625 7.51378C10.1856 7.51378 10.3075 7.53802 10.4212 7.58513L10.6125 7.12319L10.4212 7.58513C10.5349 7.63223 10.6382 7.70127 10.7253 7.7883L13.7742 10.8372L13.775 10.838C13.9065 10.9689 13.9961 11.1359 14.0325 11.3178C14.0689 11.4997 14.0504 11.6883 13.9794 11.8596C13.9084 12.031 13.7882 12.1774 13.6338 12.2803C13.4795 12.3832 13.298 12.4379 13.1125 12.4375ZM34.5 44.0625H11.5C10.1906 44.0625 9.125 42.9969 9.125 41.6875V37.375C9.125 36.0656 10.1906 35 11.5 35H34.5C35.8094 35 36.875 36.0656 36.875 37.375V41.6875C36.875 42.9969 35.8094 44.0625 34.5 44.0625ZM23 8.125C22.7514 8.125 22.5129 8.02623 22.3371 7.85041C22.1613 7.6746 22.0625 7.43614 22.0625 7.1875V2.875C22.0625 2.62636 22.1613 2.3879 22.3371 2.21209C22.5129 2.03627 22.7514 1.9375 23 1.9375C23.2486 1.9375 23.4871 2.03627 23.6629 2.21209C23.8387 2.3879 23.9375 2.62636 23.9375 2.875V7.1875C23.9375 7.43614 23.8387 7.6746 23.6629 7.85041C23.4871 8.02623 23.2486 8.125 23 8.125Z" fill="#2C3E50" stroke="#2C3E50"/>
<path d="M16.75 34.5V35H17.25H28.75H29.25V34.5V20.125C29.25 16.6777 26.4473 13.875 23 13.875C19.5527 13.875 16.75 16.6777 16.75 20.125V34.5ZM14.875 36.875V20.125C14.875 15.6445 18.5195 12 23 12C27.4805 12 31.125 15.6445 31.125 20.125V36.875H14.875Z" fill="#2C3E50" stroke="#2C3E50"/>
</g>
<defs>
<clipPath id="clip0_218_1670">
<rect width="46" height="46" fill="white"/>
</clipPath>
</defs>
</svg>
