<svg width="50" height="50" viewBox="0 0 50 50" fill="none" xmlns="http://www.w3.org/2000/svg">
<path d="M24.9998 4.16602C22.264 4.16602 19.5549 4.70489 17.0273 5.75186C14.4996 6.79883 12.203 8.3334 10.2684 10.268C6.36144 14.175 4.1665 19.474 4.1665 24.9993C4.1665 25.5519 4.386 26.0818 4.7767 26.4725C5.1674 26.8632 5.6973 27.0827 6.24984 27.0827H22.9165V39.5827C22.9165 41.2403 23.575 42.83 24.7471 44.0021C25.9192 45.1742 27.5089 45.8327 29.1665 45.8327C30.8241 45.8327 32.4138 45.1742 33.5859 44.0021C34.758 42.83 35.4165 41.2403 35.4165 39.5827C35.4165 39.0301 35.197 38.5002 34.8063 38.1095C34.4156 37.7188 33.8857 37.4993 33.3332 37.4993C32.7806 37.4993 32.2507 37.7188 31.86 38.1095C31.4693 38.5002 31.2498 39.0301 31.2498 39.5827C31.2498 40.1352 31.0303 40.6651 30.6396 41.0558C30.2489 41.4465 29.719 41.666 29.1665 41.666C28.614 41.666 28.0841 41.4465 27.6934 41.0558C27.3027 40.6651 27.0832 40.1352 27.0832 39.5827V27.0827H43.7498C44.3024 27.0827 44.8323 26.8632 45.223 26.4725C45.6137 26.0818 45.8332 25.5519 45.8332 24.9993C45.8332 22.2635 45.2943 19.5544 44.2473 17.0268C43.2004 14.4992 41.6658 12.2025 39.7312 10.268C37.7967 8.3334 35.5 6.79883 32.9724 5.75186C30.4448 4.70489 27.7357 4.16602 24.9998 4.16602ZM8.45817 22.916C8.95539 18.8791 10.9117 15.1633 13.9585 12.4687C17.0054 9.77416 20.9324 8.28676 24.9998 8.28676C29.0673 8.28676 32.9943 9.77416 36.0411 12.4687C39.088 15.1633 41.0443 18.8791 41.5415 22.916H8.45817Z" fill="#2C3E50"/>
</svg>
