<svg width="30" height="30" viewBox="0 0 30 30" fill="none" xmlns="http://www.w3.org/2000/svg">
<path d="M27.1875 14.0625C24.2049 14.0591 21.3454 12.8727 19.2363 10.7637C17.1273 8.65465 15.9409 5.79514 15.9375 2.8125C15.9375 2.56386 15.8387 2.3254 15.6629 2.14959C15.4871 1.97377 15.2486 1.875 15 1.875C14.7514 1.875 14.5129 1.97377 14.3371 2.14959C14.1613 2.3254 14.0625 2.56386 14.0625 2.8125C14.0591 5.79514 12.8727 8.65465 10.7637 10.7637C8.65465 12.8727 5.79514 14.0591 2.8125 14.0625C2.56386 14.0625 2.3254 14.1613 2.14959 14.3371C1.97377 14.5129 1.875 14.7514 1.875 15C1.875 15.2486 1.97377 15.4871 2.14959 15.6629C2.3254 15.8387 2.56386 15.9375 2.8125 15.9375C5.79514 15.9409 8.65465 17.1273 10.7637 19.2363C12.8727 21.3454 14.0591 24.2049 14.0625 27.1875C14.0625 27.4361 14.1613 27.6746 14.3371 27.8504C14.5129 28.0262 14.7514 28.125 15 28.125C15.2486 28.125 15.4871 28.0262 15.6629 27.8504C15.8387 27.6746 15.9375 27.4361 15.9375 27.1875C15.9409 24.2049 17.1273 21.3454 19.2363 19.2363C21.3454 17.1273 24.2049 15.9409 27.1875 15.9375C27.4361 15.9375 27.6746 15.8387 27.8504 15.6629C28.0262 15.4871 28.125 15.2486 28.125 15C28.125 14.7514 28.0262 14.5129 27.8504 14.3371C27.6746 14.1613 27.4361 14.0625 27.1875 14.0625ZM15 22.3441C14.337 20.6864 13.3442 19.1807 12.0818 17.9182C10.8193 16.6558 9.3136 15.663 7.65591 15C9.3136 14.337 10.8193 13.3442 12.0818 12.0818C13.3442 10.8193 14.337 9.3136 15 7.65591C15.663 9.3136 16.6558 10.8193 17.9182 12.0818C19.1807 13.3442 20.6864 14.337 22.3441 15C20.6864 15.663 19.1807 16.6558 17.9182 17.9182C16.6558 19.1807 15.663 20.6864 15 22.3441Z" fill="#2C3E50"/>
</svg>
