<svg width="30" height="30" viewBox="0 0 30 30" fill="none" xmlns="http://www.w3.org/2000/svg">
<path d="M21.7237 25.6839H8.27547C8.0709 25.6839 7.87094 25.6232 7.70086 25.5095C7.53078 25.3959 7.39822 25.2343 7.31994 25.0453C7.24167 24.8563 7.22118 24.6483 7.26108 24.4477C7.30097 24.2471 7.39946 24.0627 7.54409 23.9181L14.2682 17.1939C14.3642 17.0978 14.4782 17.0215 14.6037 16.9695C14.7292 16.9174 14.8637 16.8906 14.9996 16.8906C15.1355 16.8906 15.27 16.9174 15.3955 16.9695C15.521 17.0215 15.635 17.0978 15.731 17.1939L22.4551 23.9181C22.5998 24.0627 22.6982 24.2471 22.7381 24.4477C22.778 24.6483 22.7576 24.8563 22.6793 25.0453C22.601 25.2343 22.4684 25.3959 22.2984 25.5095C22.1283 25.6232 21.9283 25.6839 21.7237 25.6839ZM10.7727 23.615H19.2265L14.9996 19.3881L10.7727 23.615Z" fill="#2C3E50"/>
<path d="M2.06934 7.42053V19.8343C2.06934 20.383 2.28732 20.9093 2.67532 21.2973C3.06333 21.6853 3.58958 21.9033 4.1383 21.9033H7.56037L9.62934 19.8343H4.1383V7.42053H25.8624V19.8343H20.3724L22.4414 21.9033H25.8624C26.4112 21.9033 26.9374 21.6853 27.3254 21.2973C27.7134 20.9093 27.9314 20.383 27.9314 19.8343V7.42053C27.9314 6.8718 27.7134 6.34555 27.3254 5.95755C26.9374 5.56954 26.4112 5.35156 25.8624 5.35156H4.1383C3.58958 5.35156 3.06333 5.56954 2.67532 5.95755C2.28732 6.34555 2.06934 6.8718 2.06934 7.42053Z" fill="#2C3E50"/>
</svg>
