<svg width="65" height="65" viewBox="0 0 65 65" fill="none" xmlns="http://www.w3.org/2000/svg">
<g clip-path="url(#clip0_182_232)">
<path d="M65 0H0V65H65V0Z" fill="#D92027"/>
<mask id="mask0_182_232" style="mask-type:luminance" maskUnits="userSpaceOnUse" x="0" y="0" width="60" height="65">
<path d="M59.475 0H0V65H59.475V0Z" fill="white"/>
</mask>
<g mask="url(#mask0_182_232)">
<path d="M27.1818 22.3414C28.809 20.7786 30.9757 19.9029 33.2318 19.8964C37.8718 19.8964 41.2698 22.1344 41.2698 27.0644V41.7714H37.9528V26.8134C37.9528 23.7474 35.6748 22.9194 33.1878 22.9194C31.2408 22.9194 28.8378 24.0384 28.8378 26.0264V41.7714H25.6068V26.2714C25.6068 23.9504 23.2068 22.9154 20.5938 22.9154C19.2405 22.8709 17.9028 23.2159 16.7398 23.9094V41.7714H13.4248V21.8414C15.6582 20.6021 18.1629 19.9333 20.7168 19.8944C21.9025 19.856 23.0841 20.0525 24.1936 20.4724C25.3031 20.8924 26.3186 21.5275 27.1818 22.3414Z" fill="white"/>
<path d="M51.7785 39.2019C50.8618 38.9936 50.0445 38.4766 49.4635 37.7374C48.8826 36.9983 48.5733 36.082 48.5875 35.1419V26.6419H52.9795V23.5719H48.5875V18.4189L45.3115 21.6919V35.1419C45.3115 39.5749 48.4605 42.1859 52.8115 42.1859C53.2675 42.1859 53.6405 42.1439 54.0965 42.1029V39.2439C53.715 39.3245 53.3264 39.3664 52.9365 39.3689C52.5433 39.3779 52.1514 39.3218 51.7765 39.2029" fill="white"/>
<path d="M48.6187 16.0716H45.3457V12.8506L48.6187 16.0716Z" fill="white"/>
<path d="M54.0988 46.1162H13.4248V49.4162H54.0988V46.1162Z" fill="white"/>
</g>
</g>
<defs>
<clipPath id="clip0_182_232">
<rect width="65" height="65" fill="white"/>
</clipPath>
</defs>
</svg>
