<?xml version="1.0" standalone="no"?>
<!DOCTYPE svg PUBLIC "-//W3C//DTD SVG 1.1//EN" "http://www.w3.org/Graphics/SVG/1.1/DTD/svg11.dtd" >
<svg xmlns="http://www.w3.org/2000/svg" xmlns:xlink="http://www.w3.org/1999/xlink" version="1.1">
<metadata>
Created by FontForge 20201107 at Tue May 28 16:24:28 2024
 By 
HANSON METHODTM DESIGN
</metadata>
<defs>
<font id="GRIFTERBold" horiz-adv-x="1392" >
  <font-face 
    font-family="GRIFTER"
    font-weight="700"
    font-stretch="normal"
    units-per-em="2048"
    panose-1="0 0 0 0 0 0 0 0 0 0"
    ascent="1638"
    descent="-410"
    x-height="1141"
    cap-height="1434"
    bbox="51 -567 2760 1938"
    underline-thickness="0"
    underline-position="0"
    unicode-range="U+000A-F014"
  />
<missing-glyph horiz-adv-x="1058" 
d="M92 1434h875v-1434h-875v1434zM150 1393l378 -633l381 633h-759zM504 717l-369 614v-1231zM530 674l-378 -631h757zM555 717l371 -621v1239z" />
    <glyph glyph-name=".notdef" horiz-adv-x="1058" 
d="M92 1434h875v-1434h-875v1434zM150 1393l378 -633l381 633h-759zM504 717l-369 614v-1231zM530 674l-378 -631h757zM555 717l371 -621v1239z" />
    <glyph glyph-name=".null" horiz-adv-x="737" 
 />
    <glyph glyph-name=".null" horiz-adv-x="737" 
 />
    <glyph glyph-name="nonmarkingreturn" horiz-adv-x="682" 
 />
    <glyph glyph-name="controlLF" unicode="&#xa;" horiz-adv-x="737" 
 />
    <glyph glyph-name="controlCR" unicode="&#xd;" horiz-adv-x="737" 
 />
    <glyph glyph-name="space" unicode=" " horiz-adv-x="665" 
 />
    <glyph glyph-name="exclam" unicode="!" horiz-adv-x="421" 
d="M366 399h-311v1081h311v-1081zM366 0h-311v285h311v-285z" />
    <glyph glyph-name="quotedbl" unicode="&#x22;" horiz-adv-x="716" 
d="M55 889v588h256v-588h-256zM404 1477h255v-588h-255v588z" />
    <glyph glyph-name="quotedbl" unicode="&#x201d;" horiz-adv-x="716" 
d="M55 889v588h256v-588h-256zM404 1477h255v-588h-255v588z" />
    <glyph glyph-name="quotedbl" unicode="&#x201c;" horiz-adv-x="716" 
d="M55 889v588h256v-588h-256zM404 1477h255v-588h-255v588z" />
    <glyph glyph-name="numbersign" unicode="#" horiz-adv-x="1839" 
d="M1722 857h-310l-48 -238h310l-62 -303h-309l-64 -316h-320l64 316h-251l-64 -316h-319l64 316h-358l62 303h357l48 238h-357l61 303h357l64 316h320l-64 -316h251l64 316h320l-64 -316h309zM1045 619l48 238h-251l-48 -238h251z" />
    <glyph glyph-name="dollar" unicode="$" horiz-adv-x="1462" 
d="M1407 426q0 -226 -128 -318t-426 -102v-94h-244v99q-115 10 -206 37.5t-148 59.5t-98 81t-60 86t-29.5 92.5t-11.5 81t-1 70.5v15h332q0 -111 59 -164.5t163 -68.5v305q-277 49 -400 142.5t-123 270.5q0 50 9.5 96t31.5 94t62 87.5t95.5 72.5t138.5 54.5t186 28.5v96h244
v-102q123 -15 217 -55.5t150 -92.5t91 -119t47.5 -127.5t12.5 -125.5h-328q0 175 -190 221v-294q69 -12 120.5 -23t112.5 -29.5t104.5 -40t87 -53.5t70 -71t43 -92.5t16.5 -117.5zM421 1016q0 -46 40.5 -72.5t147.5 -48.5v263q-188 -21 -188 -142zM853 297q233 19 233 123
q0 35 -18.5 61.5t-53.5 43.5t-72.5 27t-88.5 18v-273z" />
    <glyph glyph-name="percent" unicode="%" horiz-adv-x="2037" 
d="M1372 1481l353 1l-1092 -1482l-351 2zM1579 806q167 0 284.5 -118t117.5 -284t-117.5 -284t-284.5 -118t-284.5 118t-117.5 284t117.5 284t284.5 118zM1579 217q77 0 132.5 55t55.5 132t-55.5 132t-132.5 55t-132 -55t-55 -132t55 -132t132 -55zM859 1080
q0 -166 -117.5 -284t-284.5 -118t-284.5 118t-117.5 284t117.5 284t284.5 118t284.5 -118t117.5 -284zM270 1080q0 -77 55 -132.5t132 -55.5t132.5 55.5t55.5 132.5t-55.5 132t-132.5 55t-132 -55t-55 -132z" />
    <glyph glyph-name="ampersand" unicode="&#x26;" horiz-adv-x="1525" 
d="M1277 364l192 -148l-185 -218h-42l-173 152q-86 -76 -196 -118t-219 -42q-91 0 -176.5 16.5t-163 52.5t-134.5 87.5t-91 127t-34 165.5q0 142 49 244.5t167 204.5q-35 60 -48.5 108t-13.5 119q0 83 29.5 150.5t77 111t112 73t131 42t136.5 12.5q116 0 213 -26t163.5 -70
t112.5 -103t67.5 -124.5t21.5 -135.5v-25h-331v25q0 88 -63.5 134t-185.5 46q-87 0 -127.5 -39t-40.5 -122q0 -24 9.5 -48t21.5 -41.5t39.5 -44.5t45.5 -42t58 -48l32 -27q137 -114 323 -268q47 74 47 178l-2 26h301v-26q-1 -43 -7.5 -89.5t-36.5 -125.5t-79 -144zM859 338
q-26 21 -115 96q-83 70 -120 100q-118 93 -179 150q-50 -48 -75 -97t-25 -125q0 -45 21.5 -79.5t52 -52.5t72 -28.5t72 -13.5t61.5 -3q162 0 235 53z" />
    <glyph glyph-name="quotesingle" unicode="'" horiz-adv-x="481" 
d="M424 1333q0 -28 -5.5 -58.5t-22.5 -70.5t-43.5 -75t-74 -69t-108.5 -56l-29 105q8 6 20.5 16t34.5 37.5t24 51.5q-81 -10 -123 34.5t-42 120.5q0 77 53.5 130.5t130.5 53.5q80 0 132.5 -58t52.5 -162z" />
    <glyph glyph-name="quotesingle" unicode="&#x2019;" horiz-adv-x="481" 
d="M424 1333q0 -28 -5.5 -58.5t-22.5 -70.5t-43.5 -75t-74 -69t-108.5 -56l-29 105q8 6 20.5 16t34.5 37.5t24 51.5q-81 -10 -123 34.5t-42 120.5q0 77 53.5 130.5t130.5 53.5q80 0 132.5 -58t52.5 -162z" />
    <glyph glyph-name="quotesingle" unicode="&#x2018;" horiz-adv-x="481" 
d="M424 1333q0 -28 -5.5 -58.5t-22.5 -70.5t-43.5 -75t-74 -69t-108.5 -56l-29 105q8 6 20.5 16t34.5 37.5t24 51.5q-81 -10 -123 34.5t-42 120.5q0 77 53.5 130.5t130.5 53.5q80 0 132.5 -58t52.5 -162z" />
    <glyph glyph-name="parenleft" unicode="(" horiz-adv-x="622" 
d="M224 1479h344q-8 -13 -22.5 -38t-50.5 -105.5t-63.5 -164.5t-50 -209t-22.5 -246t21.5 -238.5t52.5 -199.5t61.5 -147t51.5 -97l22 -31l-346 -3q-7 12 -18 33.5t-40 94t-51 150.5t-40 197.5t-18 240.5t17.5 244.5t42.5 212.5t49.5 161t41.5 108z" />
    <glyph glyph-name="parenright" unicode=")" horiz-adv-x="622" 
d="M399 0h-344q8 13 22.5 38t50.5 105.5t63.5 164.5t50 209t22.5 246t-21.5 238.5t-52 199.5t-61.5 147t-53 96l-21 32l346 4q7 -12 18 -33.5t40 -94.5t51 -151t40 -197.5t18 -240.5t-17.5 -244.5t-42 -212.5t-49.5 -161t-43 -109z" />
    <glyph glyph-name="asterisk" unicode="*" horiz-adv-x="593" 
d="M538 1253l-146 -25l101 -109l-129 -90l-67 136l-82 -141l-126 94l115 111l-149 31l51 149l134 -67l-16 138l157 -3l-18 -136l129 62z" />
    <glyph glyph-name="plus" unicode="+" horiz-adv-x="1146" 
d="M1090 891v-281h-377v-377h-281v377h-377v281h377v377h281v-377h377z" />
    <glyph glyph-name="comma" unicode="," horiz-adv-x="479" 
d="M424 139q0 -28 -5.5 -58.5t-22.5 -70.5t-43.5 -75t-74 -69t-108.5 -56l-29 105q8 6 20.5 16t34.5 37.5t24 51.5q-81 -10 -123 34.5t-42 120.5q0 77 53.5 130.5t130.5 53.5q80 0 132.5 -58t52.5 -162z" />
    <glyph glyph-name="hyphen" unicode="-" horiz-adv-x="1103" 
d="M1047 438h-992v311h992v-311z" />
    <glyph glyph-name="period" unicode="." horiz-adv-x="479" 
d="M239 0q-77 0 -130.5 54t-53.5 130t53.5 130t130.5 54t131 -54t54 -130t-54 -130t-131 -54z" />
    <glyph glyph-name="slash" unicode="/" horiz-adv-x="925" 
d="M550 1476h320l-495 -1476h-320z" />
    <glyph glyph-name="zero" unicode="0" horiz-adv-x="1449" 
d="M735 1455q295 0 475 -191t180 -536t-180 -536.5t-475 -191.5q-145 0 -264.5 47t-207 137t-135.5 229t-48 315q0 345 180 536t475 191zM735 304q176 0 258.5 104.5t82.5 319.5q0 217 -82.5 320t-258.5 103q-177 0 -259 -101.5t-82 -321.5t82 -322t259 -102z" />
    <glyph glyph-name="one" unicode="1" horiz-adv-x="831" 
d="M464 1432h311v-1432h-311v913h-409v0v0v0v0v0v0v0v0v0v0v0v0v0v0v0v0v0v1v0v0v0v0v0v0v0v1v0v0v0v0v1v0v0v0v1v0v0v1v0v0v1v0v0v1v0v0v1v0v0v1v0v1v0v1v0v1v0v1v0v1v0v1v0v1v0v1v0v1v0v1v0v1v1v0v1v0v1v1v0v1v0v1v1v1v0v1v1v1v0v1v1v1v1v0v1v1v1v1v1v1v1v1v1v1v1v1v1v1v1
v1v1v1v1v1v1v1v1v1v1v1v1v1v1v1v1v1v1v1v1v1v1v1v1v1v1v1v1v1v1v1v1v1v1v1v1v1v1v1v1v1v1v1v1v1v1v1v1v1v1v1v1v1v1v1v1v1v1v1v1v1v1v1v1v1v1v1v1v1v1v1v1v1v1v1v1v1v1v1v1v1v1v1v1v1v1v1v1v1v1v1v1v1v1v1v1v1v1v1v1v1v1v1v1v1v1v1v1v1v1v1v1v1v1v1v1v1v1v1v1v1v1v1v1v1v1v1
v1v1v1v1v1v1v1v1v1v1v1v1v1v1v1v1v1v1v1v1v1v1v1v1v1v1v1v1v1v1v1v1v1v1v1v1v1v1v1v1v1v1v1v1v1v1v1v1v1v9q81 0 147.5 15.5t108 40.5t72.5 55.5t45.5 61t23.5 55.5t10 40z" />
    <glyph glyph-name="two" unicode="2" horiz-adv-x="1273" 
d="M1217 979q0 -80 -23.5 -147.5t-64.5 -116t-93.5 -88.5t-112.5 -69.5t-120.5 -55t-118 -49t-104.5 -47.5t-80.5 -54.5t-45.5 -66.5h744v-285h-1142q-1 9 -1.5 24.5t2 60.5t9 86.5t24 94.5t42.5 93q55 86 128.5 151.5t144.5 102.5t145 66.5t136 53t111 53t77 75.5t28 112
q0 29 -5 52.5t-21.5 47.5t-43.5 40t-74 26t-110 10t-110 -16t-73 -38.5t-42.5 -57.5t-21.5 -62t-8 -63h-313q3 66 20 132.5t60 140t106 129t167 92t235 36.5q119 0 215 -29.5t157 -76.5t102 -109.5t58 -124t17 -123.5z" />
    <glyph glyph-name="three" unicode="3" horiz-adv-x="1284" 
d="M366 924h-305q0 243 143 384.5t437 141.5q122 0 219 -27t157.5 -70t100 -101.5t55.5 -117.5t16 -123q0 -58 -16.5 -106.5t-39 -78t-49.5 -51.5t-45.5 -31t-30.5 -11q13 -1 33.5 -8t54.5 -28.5t61.5 -54t48 -92.5t20.5 -135q0 -32 -5.5 -65.5t-23 -75.5t-44.5 -79
t-74.5 -73.5t-109 -63t-152 -42.5t-199.5 -16q-140 0 -245 33.5t-164 84.5t-95.5 125t-47.5 141t-11 146h306q0 -253 260 -253q125 0 188 18q129 36 129 140q0 173 -450 173v234q191 0 302 41.5t111 124.5q0 42 -16.5 72t-41 46t-64 25.5t-74.5 12t-84 2.5q-255 0 -255 -242
z" />
    <glyph glyph-name="four" unicode="4" horiz-adv-x="1435" 
d="M1131 515h245v-273h-245v-242h-311v242h-765v282l579 908h497v-917zM373 515h447v648h-33z" />
    <glyph glyph-name="five" unicode="5" horiz-adv-x="1294" 
d="M399 622h-323l88 813h1035v-286h-790l-36 -353q88 186 344 186q100 0 181 -18t134 -45.5t93 -69.5t61 -81.5t33.5 -89t15.5 -85.5t3 -78q0 -40 -5 -80.5t-21.5 -94.5t-43 -100.5t-74 -93.5t-109 -80.5t-154 -54.5t-204.5 -21q-133 0 -236 29t-165 75t-102 109.5
t-54.5 125t-14.5 128.5q66 0 168.5 -0.5t149.5 -0.5q0 -39 11 -71.5t38 -63.5t80.5 -49t129.5 -18q138 0 226 65.5t88 195.5q0 34 -6 63.5t-23.5 61t-45 54t-75 36.5t-110.5 14q-74 0 -130.5 -12.5t-85 -30.5t-46 -36t-21.5 -31z" />
    <glyph glyph-name="six" unicode="6" horiz-adv-x="1290" 
d="M641 -20q-104 0 -190 25t-146 66t-105.5 100t-72.5 121t-43.5 135.5t-22.5 137t-6 131.5q0 62 6.5 124t23 134.5t43 136t70.5 123.5t100 103t136.5 69t176.5 26q90 0 167.5 -14.5t132 -38.5t99 -55.5t72.5 -66.5t49 -70t31.5 -66.5t16.5 -55.5t7 -39l1 -14h-298
q0 6 -1 15t-14.5 32.5t-38.5 41.5t-81 33t-134 15q-71 0 -126 -31t-88.5 -86t-52 -123t-22.5 -150q113 178 385 178q514 0 514 -439q0 -38 -6 -78.5t-23.5 -90.5t-45 -95t-73.5 -88.5t-105.5 -75t-146 -51t-189.5 -19.5zM689 696q-75 0 -134 -12t-93 -31t-58 -42t-33 -45.5
t-13.5 -41.5t-3.5 -31l1 -12l-2 1q0 -111 77 -175.5t215 -64.5q303 0 303 244q0 210 -259 210z" />
    <glyph glyph-name="seven" unicode="7" horiz-adv-x="1331" 
d="M911 1432h365v-320q-301 -244 -434 -513.5t-133 -598.5h-338q0 118 18.5 232t49.5 206.5t71 178t84.5 151.5t89 123t84.5 97t71 68.5t49 41.5l19 14l5 37h-857v283h856z" />
    <glyph glyph-name="eight" unicode="8" horiz-adv-x="1323" 
d="M981 816q107 -21 196.5 -122t89.5 -231q0 -76 -20 -144.5t-66.5 -131t-115 -108t-172.5 -72.5t-232 -27q-139 0 -247 28.5t-174.5 74.5t-109 110.5t-59 130t-16.5 139.5q0 135 84.5 234.5t184.5 121.5q-60 27 -103 106.5t-43 166.5q0 106 66 190.5t176 130.5t241 46
q133 0 241.5 -41.5t175 -126t66.5 -199.5q0 -89 -45.5 -169t-117.5 -107zM661 1203q-94 0 -157.5 -37.5t-63.5 -102.5q0 -76 57 -116.5t163 -40.5t164 41t58 116q0 68 -62.5 104t-158.5 36zM661 249q90 0 159 24.5t113 80.5t44 138q0 105 -84 166t-234 61q-314 0 -314 -227
q0 -113 90.5 -178t225.5 -65z" />
    <glyph glyph-name="nine" unicode="9" horiz-adv-x="1306" 
d="M654 1432q106 0 193 -25t147.5 -66t106.5 -100t73 -121t44 -135.5t23 -137t6 -131.5q0 -50 -2.5 -95.5t-10.5 -102.5t-21 -106.5t-36 -103.5t-54 -97.5t-75.5 -84t-99.5 -67.5t-128.5 -43t-159.5 -16q-93 0 -173 14.5t-137 38.5t-104 55.5t-76.5 66.5t-52 70t-34 66.5
t-18 55.5t-7.5 39l-2 14h322q1 -6 3.5 -15t19.5 -32.5t45.5 -41.5t87.5 -33t138 -15q72 0 128 31t90.5 85.5t53.5 123.5t23 150q-115 -178 -390 -178q-522 0 -522 439q0 38 6.5 78.5t24 90.5t45.5 95t75 88.5t107.5 75t148 51t192.5 19.5zM605 716q76 0 136 12t94.5 30.5
t59 41.5t33.5 46t13.5 41.5t3.5 30.5l-1 12l1 -1q0 112 -78 176.5t-218 64.5q-307 0 -307 -245q0 -209 263 -209z" />
    <glyph glyph-name="colon" unicode=":" horiz-adv-x="481" 
d="M239 368q77 0 131 -54t54 -130t-54 -130t-131 -54t-130.5 54t-53.5 130t53.5 130t130.5 54zM239 779q-76 0 -130 54t-54 131q0 76 53.5 130t130.5 54t131 -54t54 -130t-54 -130.5t-131 -54.5z" />
    <glyph glyph-name="semicolon" unicode=";" horiz-adv-x="481" 
d="M239 794q-76 0 -130 54t-54 131t53.5 130.5t130.5 53.5t131 -54t54 -130q0 -77 -54 -131t-131 -54zM239 359q80 0 132.5 -58t52.5 -162q0 -28 -5.5 -58.5t-22.5 -70.5t-43.5 -75t-74 -69t-108.5 -56l-29 105q8 6 20.5 16t34.5 37.5t24 51.5q-81 -10 -123 34.5t-42 120.5
q0 77 53.5 130.5t130.5 53.5z" />
    <glyph glyph-name="less" unicode="&#x3c;" horiz-adv-x="993" 
d="M445 727l493 -463h-413l-470 470h3l466 466h413z" />
    <glyph glyph-name="equal" unicode="=" horiz-adv-x="1146" 
d="M1090 322h-1035v281h1035v-281zM1090 906h-1035v281h1035v-281z" />
    <glyph glyph-name="greater" unicode="&#x3e;" horiz-adv-x="993" 
d="M548 737l-493 463h413l470 -470h-3l-465 -466h-414z" />
    <glyph glyph-name="question" unicode="?" horiz-adv-x="1329" 
d="M684 1480q154 0 269.5 -35t184 -98.5t102 -144.5t33.5 -179q0 -59 -17 -107t-45 -80.5t-65 -59.5t-77.5 -48.5l-81 -43t-77.5 -47.5t-65 -57.5t-45 -77.5t-17 -103h-339q0 101 27.5 179.5t72 125.5t97.5 83t106.5 60.5t98 48.5t72 57.5t27.5 77.5q0 85 -64.5 130.5
t-220.5 45.5q-55 0 -99.5 -10.5t-73 -25.5t-49 -40t-30.5 -47t-16 -53.5t-7 -51.5t-1 -49h-329q0 48 6 94t23.5 102t45.5 104.5t77 95.5t113 80t157.5 53.5t206.5 20.5zM777 0h-333v285h333v-285z" />
    <glyph glyph-name="at" unicode="@" horiz-adv-x="1802" 
d="M913 1186q251 0 424 -66q340 -129 399 -481q12 -71 12 -150q0 -265 -104.5 -428t-258.5 -163q-78 0 -132 18.5t-78.5 49t-34 59.5t-9.5 61v37h-7q-82 -106 -280 -106q-90 0 -158.5 30.5t-104 73t-57.5 99t-28 97t-6 79.5q0 34 4.5 67.5t16 80t36.5 85t62 73t97.5 54.5
t137.5 20q191 0 278 -112h9v112h205v-507q0 -96 42 -112q37 -12 75 43q60 87 60 251q0 230 -156 359t-455 129q-148 0 -263 -42.5t-186 -118t-107 -172t-36 -210.5q0 -115 31 -208.5t95 -166t171 -112.5t250 -40q15 0 41 1t90.5 13t112.5 36q24 -35 55 -87t50 -86l19 -35
q-4 -3 -13 -9t-42 -20.5t-72 -26.5t-104.5 -22.5t-139.5 -12.5q-57 -2 -114.5 2t-140 22t-153.5 49t-145.5 91.5t-126.5 141.5t-85.5 206t-33.5 278q0 122 26 226t68 178t103 134t122 98t134 66t130.5 41.5t120 21.5t93.5 9.5t61 1.5zM904 194q65 0 108.5 15t65.5 43.5
t31 62.5t9 81q0 43 -9 76t-31 63.5t-66 47t-108 16.5q-56 0 -98 -16t-64 -38t-35.5 -52.5t-17 -52.5t-3.5 -44q0 -21 3.5 -42.5t17.5 -52t36 -53t64 -38.5t97 -16z" />
    <glyph glyph-name="A" unicode="A" horiz-adv-x="1660" 
d="M1090 1432l513 -1432h-323l-85 236h-732l-85 -236h-323l513 1432h522zM565 521h529l-226 628h-78z" />
    <glyph glyph-name="A" unicode="&#xc5;" horiz-adv-x="1660" 
d="M1090 1432l513 -1432h-323l-85 236h-732l-85 -236h-323l513 1432h522zM565 521h529l-226 628h-78z" />
    <glyph glyph-name="B" unicode="B" 
d="M1136 735q100 -35 150 -112.5t50 -214.5q0 -133 -55.5 -227t-144.5 -137.5t-202 -43.5h-879v1434h553h177q233 0 362 -99.5t129 -308.5q0 -114 -35 -184t-105 -107zM696 1149h-329v-300h342q37 0 60 0.5t54 3.5t49.5 9t39.5 17t32 27t18.5 39.5t7.5 53.5q0 35 -9 60.5
t-29 41.5t-41.5 26t-56.5 14.5t-64 6t-74 1.5zM762 284q53 0 87 2t72.5 11t59.5 25t35.5 46t14.5 73q0 95 -55.5 126.5t-174.5 31.5h-434v-315h260h135z" />
    <glyph glyph-name="C" unicode="C" horiz-adv-x="1544" 
d="M1164 546h324q-21 -242 -215 -394t-492 -152q-156 0 -287.5 47t-229.5 136.5t-153.5 229t-55.5 315.5q0 173 55.5 312t153 229.5t230 139t287.5 48.5q196 0 355 -73t250.5 -197t101.5 -276h-323q-34 118 -124 173t-260 55q-192 0 -303.5 -102.5t-111.5 -308.5t111.5 -308
t303.5 -102q172 0 262 58t121 170z" />
    <glyph glyph-name="D" unicode="D" horiz-adv-x="1437" 
d="M672 1434q126 0 230 -25.5t176 -68t127 -102.5t87 -123t52.5 -136.5t27.5 -135.5t7 -127t-7.5 -127t-28.5 -135t-53.5 -136t-88 -123t-127 -102t-175 -67.5t-227.5 -25.5h-617v1434h617zM672 284q91 0 162 30.5t112 76.5t67 107t34.5 113.5t8.5 104.5q0 55 -8.5 108
t-34.5 114t-66.5 106t-111.5 75t-163 30h-305v-865h305z" />
    <glyph glyph-name="E" unicode="E" horiz-adv-x="1292" 
d="M55 1434h1179v-282h-867v-294h867v-282h-867v-291h867v-285h-867h-312v1434z" />
    <glyph glyph-name="F" unicode="F" horiz-adv-x="1335" 
d="M55 1434h1221v-282h-909v-294h867v-282h-867v-576h-312v1434z" />
    <glyph glyph-name="G" unicode="G" horiz-adv-x="1583" 
d="M791 832h736v-820h-312v223h-17q-40 -103 -143.5 -169t-254.5 -66q-156 0 -290 47t-236 136t-160.5 229.5t-58.5 315.5q0 172 58.5 312t160 230t236.5 138.5t290 48.5q276 0 476 -136.5t242 -345.5h-341q-87 164 -377 164q-126 0 -221.5 -42t-154 -136.5t-58.5 -232.5
q0 -204 119.5 -307t314.5 -103q334 0 400 222h-409v292z" />
    <glyph glyph-name="H" unicode="H" horiz-adv-x="1484" 
d="M1116 858v576h312v-1434h-312v576h-749v-576h-312v1434h312v-576h749z" />
    <glyph glyph-name="I" unicode="I" horiz-adv-x="423" 
d="M367 0h-312v1434h312v-1434z" />
    <glyph glyph-name="J" unicode="J" horiz-adv-x="1255" 
d="M875 669v765h323v-747q0 -73 -2.5 -126t-15 -129.5t-34.5 -131.5t-65 -115.5t-102 -98t-149 -62t-204 -24.5q-111 0 -201.5 23t-149 58.5t-101.5 86t-65 97t-35 101t-16 87.5t-3 67h337q0 -23 3 -46.5t17 -60t37.5 -63t69.5 -46.5t107 -20q50 0 89 14t65 35t44.5 54.5
t28 64.5t15 74t6.5 72.5t1 70.5z" />
    <glyph glyph-name="K" unicode="K" horiz-adv-x="1441" 
d="M1386 1432l-582 -642l582 -790h-390l-411 549l-218 -240v-309h-312v1434h312v-659l600 657h419z" />
    <glyph glyph-name="L" unicode="L" horiz-adv-x="1292" 
d="M367 1434v-1152h867v-282h-1179v1434h312z" />
    <glyph glyph-name="M" unicode="M" horiz-adv-x="1789" 
d="M1286 1434h448v-1434h-311v1067h-31l-273 -1067h-448l-274 1067h-30v-1067h-312v1434h460v-2h75l286 -1147h28l286 1147h96v2z" />
    <glyph glyph-name="N" unicode="N" horiz-adv-x="1536" 
d="M1169 405v1029h311v-1434h-449l-628 1029h-36v-1029h-312v1434h422v-2h27l628 -1027h37z" />
    <glyph glyph-name="O" unicode="O" horiz-adv-x="1585" 
d="M791 1457q157 0 291 -48.5t233.5 -139t155.5 -229.5t56 -312q0 -139 -36.5 -256.5t-102.5 -203.5t-157.5 -147t-203 -91t-236.5 -30q-158 0 -291.5 47t-233 136.5t-155.5 229t-56 315.5q0 173 56 312t155.5 229.5t233.5 139t291 48.5zM791 318q194 0 312.5 105t118.5 305
q0 202 -118 306.5t-313 104.5q-196 0 -313 -103t-117 -308t117 -307.5t313 -102.5z" />
    <glyph glyph-name="O" unicode="&#xd8;" horiz-adv-x="1585" 
d="M791 1457q157 0 291 -48.5t233.5 -139t155.5 -229.5t56 -312q0 -139 -36.5 -256.5t-102.5 -203.5t-157.5 -147t-203 -91t-236.5 -30q-158 0 -291.5 47t-233 136.5t-155.5 229t-56 315.5q0 173 56 312t155.5 229.5t233.5 139t291 48.5zM791 318q194 0 312.5 105t118.5 305
q0 202 -118 306.5t-313 104.5q-196 0 -313 -103t-117 -308t117 -307.5t313 -102.5z" />
    <glyph glyph-name="O" unicode="&#xd6;" horiz-adv-x="1585" 
d="M791 1457q157 0 291 -48.5t233.5 -139t155.5 -229.5t56 -312q0 -139 -36.5 -256.5t-102.5 -203.5t-157.5 -147t-203 -91t-236.5 -30q-158 0 -291.5 47t-233 136.5t-155.5 229t-56 315.5q0 173 56 312t155.5 229.5t233.5 139t291 48.5zM791 318q194 0 312.5 105t118.5 305
q0 202 -118 306.5t-313 104.5q-196 0 -313 -103t-117 -308t117 -307.5t313 -102.5z" />
    <glyph glyph-name="O" unicode="&#xd5;" horiz-adv-x="1585" 
d="M791 1457q157 0 291 -48.5t233.5 -139t155.5 -229.5t56 -312q0 -139 -36.5 -256.5t-102.5 -203.5t-157.5 -147t-203 -91t-236.5 -30q-158 0 -291.5 47t-233 136.5t-155.5 229t-56 315.5q0 173 56 312t155.5 229.5t233.5 139t291 48.5zM791 318q194 0 312.5 105t118.5 305
q0 202 -118 306.5t-313 104.5q-196 0 -313 -103t-117 -308t117 -307.5t313 -102.5z" />
    <glyph glyph-name="P" unicode="P" horiz-adv-x="1366" 
d="M698 1434q41 0 67 -0.5t78.5 -5.5t90 -13.5t89.5 -26.5t89 -43t77 -65t64.5 -90t40.5 -120t16 -153q0 -107 -26.5 -191.5t-64.5 -137.5t-99 -91.5t-108.5 -56.5t-117 -27.5t-101.5 -10.5t-82 -1h-14h-330v-401h-312v1434h312v-2q37 0 162 1t169 1zM709 670q105 0 157 16
q152 46 152 231q0 40 -7.5 73.5t-18.5 57.5t-30.5 43t-36.5 31t-42.5 20.5t-43.5 12.5t-46 6t-42 2.5t-38 0.5h-346v-494h342z" />
    <glyph glyph-name="Q" unicode="Q" horiz-adv-x="1724" 
d="M1667 90l-291 -147l-149 148q-180 -103 -416 -103q-126 0 -239 29t-207.5 89t-163.5 146t-107.5 204.5t-38.5 259.5q0 172 59.5 312t162.5 230t240 138.5t294 48.5q125 0 238.5 -30t207.5 -91t163 -147.5t107.5 -204.5t38.5 -256q0 -237 -113 -412zM811 286
q133 0 237.5 46t169 145t64.5 239q0 107 -36.5 190.5t-101.5 135t-149.5 78t-183.5 26.5q-100 0 -184 -26t-149 -77t-101.5 -134.5t-36.5 -192.5q0 -88 24 -159.5t66.5 -121.5t102 -83.5t129.5 -49.5t149 -16z" />
    <glyph glyph-name="R" unicode="R" horiz-adv-x="1400" 
d="M1305 955q0 -89 -18 -157t-54 -114t-74 -75t-93 -58l274 -551h-338l-232 479q-62 -2 -77 -2h-330v-477h-312v1434h312v-2q37 0 190.5 1t197.5 1q53 0 86 -1t98 -10.5t108 -26t97 -52t86.5 -85t55.5 -127.5t23 -177zM727 756q29 0 45 0.5t50.5 4t56.5 10.5t50.5 21.5
t45.5 35t29 53.5t12 74t-11.5 73.5t-27.5 53t-43.5 35t-49 21.5t-55.5 11t-51 4.5t-47 0.5h-368v-398h364z" />
    <glyph glyph-name="S" unicode="S" horiz-adv-x="1474" 
d="M731 869q10 -2 31 -5q90 -15 137 -23t128.5 -27t126 -37.5t103 -50.5t88 -69.5t51.5 -92t22 -119.5q0 -105 -28.5 -182.5t-81 -128t-135.5 -80.5t-181 -42t-230 -12q-114 0 -210 14t-164 36t-122.5 57t-89 67.5t-59 78t-36 77.5t-18 77.5t-7.5 67t-1 55.5h320
q0 -63 22 -109t56.5 -72.5t86.5 -42.5t101 -21t111 -5q175 0 254 40.5t79 124.5q0 19 -4 33.5t-16 26.5t-24.5 21.5t-39.5 18t-50 14.5t-67 14t-79.5 13.5t-97.5 14.5q-135 20 -230 42.5t-173 55t-123.5 76t-70 103t-24.5 137.5q0 64 18.5 123.5t64.5 117t114.5 100.5
t176.5 69t243 26q160 0 282.5 -35t194 -88t116 -126.5t60 -140t15.5 -139.5h-327q0 34 -6.5 64t-28.5 65t-57.5 60t-99.5 41.5t-149 16.5q-69 0 -123 -10t-86 -25.5t-52 -37t-27.5 -41.5t-7.5 -43q0 -55 68.5 -84t255.5 -59z" />
    <glyph glyph-name="T" unicode="T" horiz-adv-x="1505" 
d="M55 1149v285h1395v-285h-541v-1149h-312v1149h-542z" />
    <glyph glyph-name="U" unicode="U" horiz-adv-x="1406" 
d="M1026 698v736h324v-773q0 -61 -1.5 -99.5t-14 -115.5t-35 -129t-70.5 -117t-114.5 -104.5t-172.5 -67.5t-239 -28q-134 0 -239.5 26.5t-172.5 64.5t-114.5 101.5t-70.5 114.5t-35.5 129t-14 118.5t-1.5 107.5v772h312v-736q0 -39 0.5 -64t3 -61t7.5 -59.5t13 -53.5
t21 -49.5t31 -41.5t43 -35.5t56 -25.5t71.5 -17.5t88.5 -5.5q53 0 96.5 9.5t75 23t56.5 38.5t40.5 46.5t27 55.5t17 57.5t8 62t3 58t0.5 55.5v7z" />
    <glyph glyph-name="V" unicode="V" horiz-adv-x="1650" 
d="M839 285l392 1149h361l-517 -1434h-502l-518 1434h362l391 -1149h31z" />
    <glyph glyph-name="W" unicode="W" horiz-adv-x="2322" 
d="M1657 285l265 1149h342l-335 -1434h-530l-221 948h-27l-222 -948h-539l-335 1434h343l264 -1149h36l272 1149h388l273 -1149h26z" />
    <glyph glyph-name="X" unicode="X" horiz-adv-x="1648" 
d="M1085 716l507 -716h-391l-361 522h-33l-361 -522h-391l507 716l-507 716h391l360 -520h35l360 520h391z" />
    <glyph glyph-name="Y" unicode="Y" horiz-adv-x="1628" 
d="M1221 1432h352l-601 -956v-476h-311v470l-606 962h352l390 -653h34z" />
    <glyph glyph-name="Y" unicode="&#x178;" horiz-adv-x="1628" 
d="M1221 1432h352l-601 -956v-476h-311v470l-606 962h352l390 -653h34z" />
    <glyph glyph-name="Y" unicode="&#xdd;" horiz-adv-x="1628" 
d="M1221 1432h352l-601 -956v-476h-311v470l-606 962h352l390 -653h34z" />
    <glyph glyph-name="Z" unicode="Z" horiz-adv-x="1505" 
d="M55 1434h1395v-295l-924 -817v-37h924v-284h-1327l-1 -1v1h-67v293l932 824v31h-932v285z" />
    <glyph glyph-name="bracketleft" unicode="[" horiz-adv-x="569" 
d="M514 1248h-177v-1015h177v-231h-177v-2h-282v1480h459v-232z" />
    <glyph glyph-name="backslash" unicode="\" horiz-adv-x="925" 
d="M375 1476l495 -1476h-320l-495 1476h320z" />
    <glyph glyph-name="bracketright" unicode="]" horiz-adv-x="569" 
d="M55 231h178v1015h-178v232h178v2h281v-1480h-459v231z" />
    <glyph glyph-name="underscore" unicode="_" horiz-adv-x="1146" 
d="M1090 0h-1035v281h1035v-281z" />
    <glyph glyph-name="a" unicode="a" horiz-adv-x="1394" 
d="M1011 981h13v169h312v-1150h-312v160h-9q-125 -160 -425 -160q-99 0 -181 24t-136.5 62.5t-96 91.5t-64 105t-37 110.5t-18.5 100.5t-4 81q0 42 4 85t18 102t36.5 110.5t64 104t96 89.5t137 60.5t182.5 23.5q291 0 420 -169zM680 268q98 0 164 22.5t100 66.5t47.5 95.5
t13.5 122.5q0 51 -7.5 92.5t-29 82.5t-57 69t-94 45.5t-136.5 17.5q-85 0 -148.5 -24t-97 -57.5t-54 -79.5t-25.5 -79t-5 -67q0 -21 2.5 -43.5t11 -53.5t22.5 -59t39.5 -56.5t58.5 -48.5t83.5 -33t111.5 -13z" />
    <glyph glyph-name="a" unicode="&#xe5;" horiz-adv-x="1394" 
d="M1011 981h13v169h312v-1150h-312v160h-9q-125 -160 -425 -160q-99 0 -181 24t-136.5 62.5t-96 91.5t-64 105t-37 110.5t-18.5 100.5t-4 81q0 42 4 85t18 102t36.5 110.5t64 104t96 89.5t137 60.5t182.5 23.5q291 0 420 -169zM680 268q98 0 164 22.5t100 66.5t47.5 95.5
t13.5 122.5q0 51 -7.5 92.5t-29 82.5t-57 69t-94 45.5t-136.5 17.5q-85 0 -148.5 -24t-97 -57.5t-54 -79.5t-25.5 -79t-5 -67q0 -21 2.5 -43.5t11 -53.5t22.5 -59t39.5 -56.5t58.5 -48.5t83.5 -33t111.5 -13z" />
    <glyph glyph-name="b" unicode="b" horiz-adv-x="1398" 
d="M805 1150q100 0 182.5 -23.5t137 -60.5t96 -89.5t64 -104t36.5 -110.5t18 -102t4 -85q0 -39 -4 -81t-18.5 -100.5t-37 -110.5t-64 -105t-96 -91.5t-136.5 -62.5t-181 -24q-300 0 -425 160h-14v-160h-312v1480h312v-499h17q129 169 421 169zM716 268q61 0 111.5 13
t83.5 33t58.5 48.5t39.5 56.5t22.5 59t11 53.5t2.5 43.5q0 27 -4 54t-15 64.5t-34.5 69t-58 59.5t-91 44t-127.5 16q-78 0 -136.5 -17.5t-94 -45.5t-57 -69t-29 -82.5t-7.5 -92.5q0 -71 13.5 -122.5t47.5 -95.5t100 -66.5t164 -22.5z" />
    <glyph glyph-name="c" unicode="c" horiz-adv-x="1320" 
d="M960 431h306q-17 -203 -181 -317t-417 -114q-128 0 -239 37.5t-194.5 108t-131.5 181.5t-48 249q0 136 48 246t131.5 181.5t194.5 109.5t239 38q251 0 415 -115t183 -316h-305q-44 151 -293 151q-152 0 -230 -74t-78 -221q0 -152 77 -224t231 -72q249 0 292 151z" />
    <glyph glyph-name="d" unicode="d" horiz-adv-x="1398" 
d="M1031 1480h312v-1480h-312v160h-14q-125 -160 -425 -160q-99 0 -181 24t-136.5 62.5t-96 91.5t-64 105t-37 110.5t-18.5 100.5t-4 81q0 42 4 85t18 102t36.5 110.5t64 104t96 89.5t137 60.5t182.5 23.5q291 0 420 -169h18v499zM682 268q98 0 164 22.5t100 66.5t47.5 95.5
t13.5 122.5q0 51 -7.5 92.5t-29 82.5t-57 69t-94 45.5t-136.5 17.5q-85 0 -148.5 -24t-97 -57.5t-54 -79.5t-25.5 -79t-5 -67q0 -21 2.5 -43.5t11 -53.5t22.5 -59t39.5 -56.5t58.5 -48.5t83.5 -33t111.5 -13z" />
    <glyph glyph-name="e" unicode="e" horiz-adv-x="1345" 
d="M1275 502h-917q16 -117 91 -173t224 -56q258 0 307 127h302q-25 -190 -178.5 -295t-430.5 -105q-298 0 -458 148t-160 432q0 279 162.5 430t455.5 151q234 0 389 -109v1q64 -43 110.5 -99.5t69.5 -113.5t37 -119t12 -115.5t-5 -103.5h-11zM673 888q-247 0 -303 -180h607
q-8 29 -19.5 52t-34.5 48t-54 41.5t-81.5 27.5t-114.5 11z" />
    <glyph glyph-name="f" unicode="f" horiz-adv-x="1019" 
d="M676 1278q-82 0 -112 -25.5t-37 -102.5h413v-257h-416v-893h-312v893h-157v257h161q7 124 28.5 202.5t65.5 124t103.5 62.5t150.5 17q88 0 187 -7.5t154 -14.5l55 -8v-264q-166 16 -284 16z" />
    <glyph glyph-name="g" unicode="g" horiz-adv-x="1398" 
d="M1031 1137h312v-1026q0 -60 -4 -112t-18.5 -122.5t-39.5 -127t-72 -115t-110 -98t-158.5 -64.5t-213.5 -25q-107 0 -196.5 16t-151.5 43t-110.5 64.5t-77.5 77.5t-47.5 85.5t-25 84.5t-6.5 79h309q3 -28 17.5 -55.5t45.5 -57.5t93.5 -49t148.5 -19q153 0 229 92.5
t76 255.5v83h-14q-125 -160 -425 -160q-99 0 -181 24t-136.5 62.5t-96 91.5t-64 105t-37 110.5t-18.5 100.5t-4 81q0 42 4 85t18 102t36.5 110.5t64 104t96 89.5t137 60.5t182.5 23.5q291 0 420 -169h18v169zM682 255q98 0 164 22.5t100 66.5t47.5 95.5t13.5 122.5
q0 51 -7.5 92.5t-29 82.5t-57 69t-94 45.5t-136.5 17.5q-85 0 -148.5 -24t-97 -57.5t-54 -79.5t-25.5 -79t-5 -67q0 -21 2.5 -43.5t11 -53.5t22.5 -59t39.5 -56.5t58.5 -48.5t83.5 -33t111.5 -13z" />
    <glyph glyph-name="h" unicode="h" horiz-adv-x="1359" 
d="M786 1150q79 0 146 -14.5t115.5 -38.5t88.5 -59t66 -72t45.5 -82.5t30 -84.5t17 -84t8 -76t1.5 -64v-575h-310v575q0 28 -0.5 45.5t-6.5 53.5t-16.5 60t-32.5 54.5t-52.5 49t-79.5 31.5t-110 13q-96 0 -164 -28.5t-102 -78t-48.5 -103.5t-14.5 -118v-554h-312v1480h312
v-499h15q124 169 404 169z" />
    <glyph glyph-name="i" unicode="i" horiz-adv-x="419" 
d="M366 0h-311v1142h311v-1142zM366 1224h-311v278h311v-278z" />
    <glyph glyph-name="j" unicode="j" horiz-adv-x="847" 
d="M486 38v1084h306v-1097h-1q0 -71 -5.5 -127.5t-21.5 -120.5t-42 -111.5t-71 -93t-106.5 -75t-149.5 -47t-198 -17.5h-142v301h142q152 1 220.5 74.5t68.5 229.5zM792 1208h-306v274h306v-274z" />
    <glyph glyph-name="k" unicode="k" horiz-adv-x="1359" 
d="M1304 1149l-488 -480l483 -669h-387l-323 447l-223 -221v-223h-311v1477h311v-831l506 500h432z" />
    <glyph glyph-name="l" unicode="l" horiz-adv-x="419" 
d="M366 0h-311v1474h311v-1474z" />
    <glyph glyph-name="m" unicode="m" horiz-adv-x="2172" 
d="M1619 1149q79 0 145 -14.5t114 -38t86.5 -59.5t63 -71.5t42.5 -82.5t27 -84.5t14 -84.5t6 -75t1 -64v-575h-310v575q0 30 -0.5 46t-5.5 53t-14.5 60t-30 54t-49.5 49t-75 31t-104 13q-78 0 -133 -20t-84.5 -49t-45.5 -76.5t-20 -86.5t-4 -95l-1 5v-559h-310v575
q0 30 -0.5 46t-5.5 53t-14.5 60t-30 54t-49.5 49t-75 31t-104 13q-78 0 -133 -20t-84 -49t-45.5 -76.5t-20 -86t-3.5 -95.5v-554h-311v1140h311v-160h13q61 83 149.5 126t233.5 43q271 0 389 -169h-1h15q31 42 63 69.5t83 52t127 36t181 11.5z" />
    <glyph glyph-name="n" unicode="n" horiz-adv-x="1320" 
d="M766 1149q79 0 145 -14.5t114 -38t86.5 -59.5t63 -71.5t42.5 -82.5t27 -84.5t14 -84.5t6 -75t1 -64v-575h-310v575v15q0 30 -0.5 47.5t-5.5 52t-14.5 56.5t-30 50t-49.5 44.5t-75 28.5t-104 12q-78 0 -135.5 -19.5t-90 -50t-52 -75.5t-25.5 -87t-6 -95v-554h-312v1149
h312v-169h15q60 83 149.5 126t234.5 43z" />
    <glyph glyph-name="o" unicode="o" 
d="M696 1171q133 0 247.5 -36.5t203 -106.5t139.5 -184t51 -259q0 -118 -33.5 -215.5t-92 -165t-139.5 -114t-175.5 -68.5t-200.5 -22q-133 0 -247.5 36.5t-203 106.5t-139.5 183.5t-51 258.5q0 144 51 257.5t139.5 184.5t203 107.5t247.5 36.5zM696 285q153 0 243.5 74.5
t90.5 225.5q0 153 -90 227t-244 74q-155 0 -244.5 -73.5t-89.5 -227.5q0 -155 89.5 -227.5t244.5 -72.5z" />
    <glyph glyph-name="o" unicode="&#xf8;" 
d="M696 1171q133 0 247.5 -36.5t203 -106.5t139.5 -184t51 -259q0 -118 -33.5 -215.5t-92 -165t-139.5 -114t-175.5 -68.5t-200.5 -22q-133 0 -247.5 36.5t-203 106.5t-139.5 183.5t-51 258.5q0 144 51 257.5t139.5 184.5t203 107.5t247.5 36.5zM696 285q153 0 243.5 74.5
t90.5 225.5q0 153 -90 227t-244 74q-155 0 -244.5 -73.5t-89.5 -227.5q0 -155 89.5 -227.5t244.5 -72.5z" />
    <glyph glyph-name="o" unicode="&#xf6;" 
d="M696 1171q133 0 247.5 -36.5t203 -106.5t139.5 -184t51 -259q0 -118 -33.5 -215.5t-92 -165t-139.5 -114t-175.5 -68.5t-200.5 -22q-133 0 -247.5 36.5t-203 106.5t-139.5 183.5t-51 258.5q0 144 51 257.5t139.5 184.5t203 107.5t247.5 36.5zM696 285q153 0 243.5 74.5
t90.5 225.5q0 153 -90 227t-244 74q-155 0 -244.5 -73.5t-89.5 -227.5q0 -155 89.5 -227.5t244.5 -72.5z" />
    <glyph glyph-name="o" unicode="&#xf5;" 
d="M696 1171q133 0 247.5 -36.5t203 -106.5t139.5 -184t51 -259q0 -118 -33.5 -215.5t-92 -165t-139.5 -114t-175.5 -68.5t-200.5 -22q-133 0 -247.5 36.5t-203 106.5t-139.5 183.5t-51 258.5q0 144 51 257.5t139.5 184.5t203 107.5t247.5 36.5zM696 285q153 0 243.5 74.5
t90.5 225.5q0 153 -90 227t-244 74q-155 0 -244.5 -73.5t-89.5 -227.5q0 -155 89.5 -227.5t244.5 -72.5z" />
    <glyph glyph-name="p" unicode="p" horiz-adv-x="1398" 
d="M805 1148q100 0 182.5 -23.5t137 -61t96 -90t64 -103.5t36.5 -110t18 -102t4 -85q0 -39 -4 -81t-18.5 -100.5t-37 -110.5t-64 -105t-96 -91.5t-136.5 -62.5t-181 -24q-300 0 -425 160h-14v-596h-312v1586h312v-169h18q129 169 420 169zM716 266q61 0 111.5 13t83.5 33
t58.5 48.5t39.5 56.5t22.5 59t11 53.5t2.5 43.5q0 27 -4 54t-15 64.5t-34.5 69t-58 59.5t-91 44t-127.5 16q-78 0 -136.5 -17.5t-94 -45.5t-57 -69t-29 -82.5t-7.5 -92.5q0 -71 13.5 -122.5t47.5 -95.5t100 -66.5t164 -22.5z" />
    <glyph glyph-name="q" unicode="q" horiz-adv-x="1398" 
d="M1031 1148h312v-1586h-312v596h-14q-125 -160 -425 -160q-99 0 -181 24t-136.5 62.5t-96 91.5t-64 105t-37 110.5t-18.5 100.5t-4 81q0 42 4 85t18 102t36.5 110.5t64 104t96 89.5t137 60.5t182.5 23.5q292 0 421 -169h17v169zM682 266q98 0 164 22.5t100 66.5t47.5 95.5
t13.5 122.5q0 51 -7.5 92.5t-29 82.5t-57 69t-94 45.5t-136.5 17.5q-85 0 -148.5 -24t-97 -57.5t-54 -79.5t-25.5 -79t-5 -67q0 -21 2.5 -43.5t11 -53.5t22.5 -59t39.5 -56.5t58.5 -48.5t83.5 -33t111.5 -13z" />
    <glyph glyph-name="r" unicode="r" horiz-adv-x="978" 
d="M719 1149q73 0 204 -29l-49 -294q-94 26 -207 26q-83 0 -144 -30t-93.5 -80.5t-47.5 -106.5t-15 -119v-516h-312v1149h312v-169h20q52 90 122.5 129.5t209.5 39.5z" />
    <glyph glyph-name="s" unicode="s" horiz-adv-x="1275" 
d="M666 696q220 -33 314 -65q199 -69 233 -219q8 -33 8 -71q0 -84 -25 -144.5t-68.5 -98.5t-115.5 -60t-153.5 -30t-194.5 -8q-392 0 -530 140q-28 28 -45.5 60t-24 67.5t-8 55.5t-1.5 52l1 23h320v-10q0 -75 63.5 -108.5t216.5 -33.5q244 0 244 90q0 25 -13.5 44t-32.5 30
t-54 20t-62 13t-73 10q-17 2 -49 6q-106 14 -183.5 31t-147 44t-112 63t-67.5 88.5t-25 119.5q0 52 12.5 98.5t49 94.5t93.5 82t154.5 55.5t224.5 21.5q137 0 242 -24t167 -61.5t101 -90t52.5 -103.5t13.5 -109v-10h-317v10q0 139 -259 139q-61 0 -105.5 -10t-66 -26.5
t-30.5 -32t-9 -30.5q0 -41 46.5 -64.5t189.5 -44.5z" />
    <glyph glyph-name="t" unicode="t" horiz-adv-x="948" 
d="M521 884v-409h-1l1 -23q0 -75 24 -104t88 -33t175 5q55 3 86 5v-304q-63 -21 -374 -21q-51 0 -92.5 9.5t-72 23.5t-54.5 39.5t-39 47.5t-25.5 57.5t-16 60t-8 64t-3 60.5t-0.5 59v2v461h-154v262h154v332h312v-332h373v-262h-373z" />
    <glyph glyph-name="u" unicode="u" horiz-adv-x="1320" 
d="M954 1149h311v-1149h-311v169h-15q-60 -82 -149.5 -125.5t-235.5 -43.5q-79 0 -145 14.5t-114 38t-86.5 59.5t-63 72t-42.5 83t-27 84t-14 84t-6 75.5t-1 64.5v574h310v-574v-15q0 -30 0.5 -47.5t5.5 -52t14.5 -57t30 -50.5t49.5 -44.5t75 -28.5t104 -12q78 0 135.5 19.5
t90 50t52.5 75.5t26 87.5t6 94.5v554z" />
    <glyph glyph-name="v" unicode="v" horiz-adv-x="1470" 
d="M1086 1141h330l-443 -1141h-475l-443 1141h330l335 -863h32z" />
    <glyph glyph-name="w" unicode="w" horiz-adv-x="2097" 
d="M1727 1149h314l-362 -1149h-421l-210 681l-210 -681h-421l-362 1149h315l266 -845l261 845h303l261 -845z" />
    <glyph glyph-name="x" unicode="x" horiz-adv-x="1380" 
d="M1323 1149l-450 -574l450 -575h-367l-267 340l-266 -340h-368l451 575l-451 574h368l266 -340l267 340h367z" />
    <glyph glyph-name="y" unicode="y" horiz-adv-x="1433" 
d="M1049 1148h329l-607 -1586h-330l168 437h-111l-443 1149h330l333 -865z" />
    <glyph glyph-name="y" unicode="&#xff;" horiz-adv-x="1433" 
d="M1049 1148h329l-607 -1586h-330l168 437h-111l-443 1149h330l333 -865z" />
    <glyph glyph-name="y" unicode="&#xfd;" horiz-adv-x="1433" 
d="M1049 1148h329l-607 -1586h-330l168 437h-111l-443 1149h330l333 -865z" />
    <glyph glyph-name="z" unicode="z" horiz-adv-x="1267" 
d="M55 1148h1157v-294l-734 -569h734v-285h-1157v294l736 570h-736v284z" />
    <glyph glyph-name="asciitilde" unicode="~" horiz-adv-x="1144" 
d="M55 801q70 -57 147.5 -73.5t149 -0.5t146 45t149.5 58t146.5 45t149 -0.5t147.5 -73.5v-282q-70 57 -147.5 73.5t-149 0.5t-146.5 -45t-149.5 -58t-146 -45t-149 0.5t-147.5 73.5v282z" />
    <glyph glyph-name="nonbreakingspace" unicode="&#xa0;" horiz-adv-x="1613" 
 />
    <glyph glyph-name="exclamdown" unicode="&#xa1;" horiz-adv-x="419" 
d="M366 0h-311v1080h311v-1080zM366 1194h-311v285h311v-285z" />
    <glyph glyph-name="copyright" unicode="&#xa9;" horiz-adv-x="1585" 
d="M793 1455q200 0 370 -99t269 -269t99 -370q0 -150 -58.5 -286.5t-157.5 -235t-235.5 -157t-286.5 -58.5t-286.5 58.5t-235.5 157t-157.5 235t-58.5 286.5q0 200 99 370t269 269t370 99zM793 204q104 0 199 40.5t164 109.5t109.5 164t40.5 199t-40.5 199t-109.5 164
t-164 109.5t-199 40.5t-199 -40.5t-164 -109.5t-109.5 -164t-40.5 -199t40.5 -199t109.5 -164t164 -109.5t199 -40.5zM674 898q-26 -28 -41 -74q-14 -43 -14 -110q0 -66 14 -111q15 -47 41 -75q25 -26 57 -40q34 -13 70 -13q135 0 150 138h208q0 -61 -24 -114
q-24 -52 -67 -94t-113 -66q-69 -24 -154 -24q-88 0 -156 26q-70 27 -123 77q-52 49 -81 126q-29 76 -29 170q0 93 29 169t81 125q53 50 123 77q71 27 156 27t154 -24q66 -23 112 -64q42 -39 66 -89q23 -47 23 -102h-208q-3 22 -12 42q-10 22 -25 38q-16 18 -44 28
q-27 10 -66 10q-40 0 -70 -13q-32 -14 -57 -40z" />
    <glyph glyph-name="guillemotleft" unicode="&#xab;" horiz-adv-x="1495" 
d="M1439 1200l-492 -463l491 -473h-413l-465 466h-3l469 470h413zM938 1200l-493 -463l492 -473h-413l-466 466h-3l470 470h413z" />
    <glyph glyph-name="softhyphen" unicode="&#xad;" horiz-adv-x="737" 
 />
    <glyph glyph-name="registered" unicode="&#xae;" horiz-adv-x="1585" 
d="M795 1445q200 0 370 -99t269 -269t99 -370t-99 -370t-269 -269t-370 -99t-370 99t-269 269t-99 370t99 370t269 269t370 99zM795 194q104 0 199 40.5t164 109.5t109.5 164t40.5 199t-40.5 199t-109.5 164t-164 109.5t-199 40.5t-199 -40.5t-164 -109.5t-109.5 -164
t-40.5 -199t40.5 -199t109.5 -164t164 -109.5t199 -40.5zM1083 714q-36 -51 -105 -74l161 -265h-211l-139 248h-97v-248h-181v683h360q116 0 182 -57t66 -160q0 -76 -36 -127zM911 783q23 20 23 58q0 37 -23 57q-24 21 -70 21h-149v-157h149q46 0 70 21z" />
    <glyph glyph-name="degree" unicode="&#xb0;" horiz-adv-x="614" 
d="M307 1492q104 0 177.5 -73.5t73.5 -177.5t-73.5 -178t-177.5 -74t-178 74t-74 178t74 177.5t178 73.5zM307 1125q48 0 81.5 34t33.5 82t-33.5 81.5t-81.5 33.5t-82 -33.5t-34 -81.5t34 -82t82 -34z" />
    <glyph glyph-name="mu" unicode="&#xb5;" horiz-adv-x="2816" 
d="M703 1372h680l-647 -1372h-681zM1566 1372h681l-647 -1372h-681zM2079 610h681l-297 -610h-682z" />
    <glyph glyph-name="guillemotright" unicode="&#xbb;" horiz-adv-x="1495" 
d="M938 730h-3l-465 -466h-414l492 473l-493 463h413zM970 1200l470 -470h-4l-465 -466h-413l492 473l-493 463h413z" />
    <glyph glyph-name="questiondown" unicode="&#xbf;" horiz-adv-x="1329" 
d="M945 549h328q0 -48 -6 -94t-23.5 -102t-45.5 -104.5t-76.5 -95.5t-112.5 -79.5t-157.5 -53t-206.5 -20.5q-154 0 -269.5 35t-184.5 98.5t-102.5 144.5t-33.5 179q0 59 17 106.5t45 80t65 59.5t77.5 48.5l81 43t77.5 47.5t65 57.5t45 77.5t17 103h339q0 -101 -27.5 -179.5
t-72 -125.5t-97.5 -82.5t-106.5 -60t-98 -48.5t-72 -57.5t-27.5 -77.5q0 -85 64.5 -130.5t221.5 -45.5q56 0 100 10.5t72.5 25.5t49 40t30.5 47t16 53t7 51t1 49zM884 1194h-333v286h333v-286z" />
    <glyph glyph-name="Agrave" unicode="&#xc0;" horiz-adv-x="1658" 
d="M1167 1699l-88 -186l-567 167l99 229zM1090 1432l513 -1432h-323l-85 236h-732l-85 -236h-323l513 1432h6v2h386v-2h130zM565 520h529l-226 629h-78z" />
    <glyph glyph-name="Aacute" unicode="&#xc1;" horiz-adv-x="1658" 
d="M1150 1709l-567 -167l-88 187l556 209zM1090 1432l513 -1432h-323l-85 236h-732l-85 -236h-323l513 1432h6v2h386v-2h130zM565 521h529l-226 628h-78z" />
    <glyph glyph-name="Acircumflex" unicode="&#xc2;" horiz-adv-x="1658" 
d="M1090 1432l513 -1432h-323l-85 236h-732l-85 -236h-323l513 1432h6v2h386v-2h130zM565 521h529l-226 628h-78zM829 1652l-240 -104l-80 181l320 144l321 -144l-80 -181z" />
    <glyph glyph-name="Atilde" unicode="&#xc3;" horiz-adv-x="1658" 
d="M1090 1432l513 -1432h-323l-85 236h-732l-85 -236h-323l513 1432h6v2h386v-2h130zM565 520h529l-226 629h-78zM1201 1572q-56 36 -120.5 44.5t-120.5 -4t-120.5 -28t-120.5 -28t-120.5 -4t-120.5 44.5v212q56 -36 120.5 -44.5t120.5 4t120.5 28t120.5 28t120.5 4
t120.5 -44.5v-212z" />
    <glyph glyph-name="Adieresis" unicode="&#xc4;" horiz-adv-x="1658" 
d="M1090 1432l513 -1432h-323l-85 236h-732l-85 -236h-323l513 1432h522zM565 520h529l-226 629h-78zM608 1540q-62 0 -106.5 44.5t-44.5 106.5t44.5 106t106.5 44t106.5 -44.5t44.5 -106.5t-44.5 -106t-106.5 -44zM1050 1540q-62 0 -106 44.5t-44 106.5t44 106t106 44
t106.5 -44.5t44.5 -106.5t-44.5 -106t-106.5 -44z" />
    <glyph glyph-name="Ccedilla" unicode="&#xc7;" horiz-adv-x="1523" 
d="M1469 540q-19 -216 -171 -361t-398 -176q0 -4 -0.5 -22.5t-0.5 -33.5q59 0 108 -15t85 -54t36 -97q0 -145 -134 -194.5t-373 -1.5v139q168 0 230.5 9.5t62.5 50.5q0 49 -215 42q0 47 -0.5 104.5t-0.5 67.5q-140 11 -257 63.5t-203.5 141.5t-134.5 222.5t-48 297.5
q0 173 55 312t152 229.5t228.5 138.5t286.5 48q147 0 273.5 -42.5t215.5 -115.5t142.5 -173t60.5 -214h-323q-24 99 -115.5 163.5t-253.5 64.5q-191 0 -301 -102t-110 -309t110 -309t301 -102q86 0 153.5 19.5t109.5 53t67 72t38 83.5h324z" />
    <glyph glyph-name="Egrave" unicode="&#xc8;" horiz-adv-x="1288" 
d="M972 1699l-88 -186l-567 167l99 229zM1234 1152h-867v-294h867v-282h-867v-291h867v-285h-867h-312v1434h1179v-282z" />
    <glyph glyph-name="Eacute" unicode="&#xc9;" horiz-adv-x="1288" 
d="M974 1680l-567 -167l-88 186l556 210zM1234 1152h-867v-294h867v-282h-867v-291h867v-285h-867h-312v1434h1179v-282z" />
    <glyph glyph-name="Ecircumflex" unicode="&#xca;" horiz-adv-x="1288" 
d="M1234 1152h-867v-294h867v-282h-867v-291h867v-285h-867h-312v1434h1179v-282zM644 1652l-297 -104l-98 181l395 144l396 -144l-99 -181z" />
    <glyph glyph-name="Edieresis" unicode="&#xcb;" horiz-adv-x="1288" 
d="M385 1532q-62 0 -106.5 44t-44.5 106t44.5 106.5t106.5 44.5t106 -44.5t44 -106.5t-44 -106t-106 -44zM904 1532q-62 0 -106 44t-44 106t44 106.5t106 44.5t106.5 -44.5t44.5 -106.5t-44.5 -106t-106.5 -44zM1234 1152h-867v-294h867v-282h-867v-291h867v-285h-867h-312
v1434h1179v-282z" />
    <glyph glyph-name="Igrave" unicode="&#xcc;" horiz-adv-x="765" 
d="M154 1938l556 -209l-88 -187l-567 167zM614 0h-312v1434h312v-1434z" />
    <glyph glyph-name="Iacute" unicode="&#xcd;" horiz-adv-x="765" 
d="M611 1938l99 -229l-567 -167l-88 187zM468 0h-312v1434h312v-1434z" />
    <glyph glyph-name="Icircumflex" unicode="&#xce;" horiz-adv-x="780" 
d="M539 0h-312v1434h312v-1434zM390 1873l335 -144l-83 -181l-252 104l-251 -104l-84 181z" />
    <glyph glyph-name="Idieresis" unicode="&#xcf;" horiz-adv-x="854" 
d="M569 0h-312v1434h312v-1434zM356 1702q0 -62 -44 -106.5t-106 -44.5t-106.5 44.5t-44.5 106.5t44.5 106t106.5 44t106 -44t44 -106zM648 1852q62 0 106.5 -44t44.5 -106t-44.5 -106.5t-106.5 -44.5t-106 44.5t-44 106.5t44 106t106 44z" />
    <glyph glyph-name="Ntilde" unicode="&#xd1;" horiz-adv-x="1536" 
d="M1169 1434h311v-1434h-449l-628 1048h-36v-1048h-312v1434h422v-2h27l628 -1046h37v1048zM1183 1604q-56 36 -118 48t-119.5 4.5t-117.5 -23l-120 -31t-117.5 -23t-119.5 4.5t-118 48v244q56 -36 118 -48t119.5 -4.5t117.5 23l120 31t117.5 23t119.5 -4.5t118 -48v-244z
" />
    <glyph glyph-name="Ograve" unicode="&#xd2;" horiz-adv-x="1558" 
d="M1123 1729l-88 -187l-567 167l99 229zM779 1434q155 0 286.5 -47.5t229.5 -136.5t153.5 -226t55.5 -307q0 -173 -55.5 -310.5t-153.5 -225.5t-229.5 -134.5t-286.5 -46.5t-286.5 47.5t-229 136.5t-153 226t-55.5 307t55.5 307t153 226t229 136.5t286.5 47.5zM779 313
q125 0 218.5 41.5t149.5 134t56 228.5t-56 228.5t-149.5 134t-218.5 41.5q-192 0 -307.5 -102.5t-115.5 -301.5q0 -197 116.5 -300.5t306.5 -103.5z" />
    <glyph glyph-name="Oacute" unicode="&#xd3;" horiz-adv-x="1558" 
d="M1091 1709l-567 -167l-88 187l556 209zM780 1434q155 0 286.5 -47.5t229 -136.5t153 -226t55.5 -307t-55.5 -307t-153 -226t-229 -136.5t-286.5 -47.5t-286.5 46.5t-229.5 134.5t-153.5 225.5t-55.5 310.5q0 170 55.5 307t153.5 226t229.5 136.5t286.5 47.5zM780 313
q190 0 306.5 103.5t116.5 300.5q0 199 -115.5 301.5t-307.5 102.5q-125 0 -218.5 -41.5t-149.5 -134t-56 -228.5t56 -228.5t149.5 -134t218.5 -41.5z" />
    <glyph glyph-name="Ocircumflex" unicode="&#xd4;" horiz-adv-x="1558" 
d="M780 1434q155 0 286.5 -47.5t229 -136.5t153 -226t55.5 -307t-55.5 -307t-153 -226t-229 -136.5t-286.5 -47.5t-286.5 46.5t-229.5 134.5t-153.5 225.5t-55.5 310.5q0 170 55.5 307t153.5 226t229.5 136.5t286.5 47.5zM780 313q190 0 306.5 103.5t116.5 300.5
q0 199 -115.5 301.5t-307.5 102.5q-125 0 -218.5 -41.5t-149.5 -134t-56 -228.5t56 -228.5t149.5 -134t218.5 -41.5zM779 1652l-297 -104l-98 181l395 144l396 -144l-99 -181z" />
    <glyph glyph-name="multiply" unicode="&#xd7;" horiz-adv-x="1040" 
d="M986 936l-267 -266l267 -266l-199 -199l-267 266l-266 -266l-199 199l267 266l-267 266l199 199l266 -266l267 266z" />
    <glyph glyph-name="Ugrave" unicode="&#xd9;" horiz-adv-x="1404" 
d="M1030 1699l-88 -186l-567 167l99 229zM1026 1434h324v-773q0 -61 -1.5 -99.5t-14 -115.5t-35 -129t-70.5 -117t-114.5 -104.5t-172.5 -67.5t-239 -28q-134 0 -239.5 26.5t-172.5 64.5t-114.5 101.5t-70.5 114.5t-35.5 129t-14 118.5t-1.5 107.5v772h312v-736
q0 -39 0.5 -64t3 -61t7.5 -59.5t13 -53.5t21 -49.5t31 -41.5t43 -35.5t56 -25.5t71.5 -17.5t88.5 -5.5q53 0 96.5 9.5t75 23t56.5 38.5t40.5 46.5t27 55.5t17 57.5t8 62t3 58t0.5 55.5v7v736z" />
    <glyph glyph-name="Uacute" unicode="&#xda;" horiz-adv-x="1404" 
d="M1030 1709l-567 -167l-88 187l556 209zM1026 1434h324v-773q0 -61 -1.5 -99.5t-14 -115.5t-35 -129t-70.5 -117t-114.5 -104.5t-172.5 -67.5t-239 -28q-134 0 -239.5 26.5t-172.5 64.5t-114.5 101.5t-70.5 114.5t-35.5 129t-14 118.5t-1.5 107.5v772h312v-736
q0 -39 0.5 -64t3 -61t7.5 -59.5t13 -53.5t21 -49.5t31 -41.5t43 -35.5t56 -25.5t71.5 -17.5t88.5 -5.5q53 0 96.5 9.5t75 23t56.5 38.5t40.5 46.5t27 55.5t17 57.5t8 62t3 58t0.5 55.5v7v736z" />
    <glyph glyph-name="Ucircumflex" unicode="&#xdb;" horiz-adv-x="1404" 
d="M1026 1434h324v-773q0 -61 -1.5 -99.5t-14 -115.5t-35 -129t-70.5 -117t-114.5 -104.5t-172.5 -67.5t-239 -28q-134 0 -239.5 26.5t-172.5 64.5t-114.5 101.5t-70.5 114.5t-35.5 129t-14 118.5t-1.5 107.5v772h312v-736q0 -39 0.5 -64t3 -61t7.5 -59.5t13 -53.5t21 -49.5
t31 -41.5t43 -35.5t56 -25.5t71.5 -17.5t88.5 -5.5q53 0 96.5 9.5t75 23t56.5 38.5t40.5 46.5t27 55.5t17 57.5t8 62t3 58t0.5 55.5v7v736zM703 1623l-297 -103l-99 181l396 144l395 -144l-98 -181z" />
    <glyph glyph-name="Udieresis" unicode="&#xdc;" horiz-adv-x="1404" 
d="M443 1532q-62 0 -106.5 44t-44.5 106t44.5 106.5t106.5 44.5t106 -44.5t44 -106.5t-44 -106t-106 -44zM962 1532q-62 0 -106 44t-44 106t44 106.5t106 44.5t106.5 -44.5t44.5 -106.5t-44.5 -106t-106.5 -44zM1026 1434h324v-773q0 -61 -1.5 -99.5t-14 -115.5t-35 -129
t-70.5 -117t-114.5 -104.5t-172.5 -67.5t-239 -28q-134 0 -239.5 26.5t-172.5 64.5t-114.5 101.5t-70.5 114.5t-35.5 129t-14 118.5t-1.5 107.5v772h312v-736q0 -39 0.5 -64t3 -61t7.5 -59.5t13 -53.5t21 -49.5t31 -41.5t43 -35.5t56 -25.5t71.5 -17.5t88.5 -5.5
q53 0 96.5 9.5t75 23t56.5 38.5t40.5 46.5t27 55.5t17 57.5t8 62t3 58t0.5 55.5v7v736z" />
    <glyph glyph-name="agrave" unicode="&#xe0;" 
d="M1026 1150h312v-1150h-312v160h-9q-125 -160 -425 -160q-99 0 -181 24t-136.5 62.5t-96 91.5t-64 105t-37 110.5t-18.5 100.5t-4 81q0 42 4 85t18 102t36.5 110.5t64 104t96 89.5t137 60.5t182.5 23.5q291 0 420 -169h13v169zM682 268q98 0 164 22.5t100 66.5t47.5 95.5
t13.5 122.5q0 51 -7.5 92.5t-29 82.5t-57 69t-94 45.5t-136.5 17.5q-85 0 -148.5 -24t-97 -57.5t-54 -79.5t-25.5 -79t-5 -67q0 -21 2.5 -43.5t11 -53.5t22.5 -59t39.5 -56.5t58.5 -48.5t83.5 -33t111.5 -13zM1033 1372l-88 -187l-567 167l99 229z" />
    <glyph glyph-name="aacute" unicode="&#xe1;" 
d="M1026 1150h312v-1150h-312v160h-9q-125 -160 -425 -160q-99 0 -181 24t-136.5 62.5t-96 91.5t-64 105t-37 110.5t-18.5 100.5t-4 81q0 42 4 85t18 102t36.5 110.5t64 104t96 89.5t137 60.5t182.5 23.5q291 0 420 -169h13v169zM682 268q98 0 164 22.5t100 66.5t47.5 95.5
t13.5 122.5q0 51 -7.5 92.5t-29 82.5t-57 69t-94 45.5t-136.5 17.5q-85 0 -148.5 -24t-97 -57.5t-54 -79.5t-25.5 -79t-5 -67q0 -21 2.5 -43.5t11 -53.5t22.5 -59t39.5 -56.5t58.5 -48.5t83.5 -33t111.5 -13zM970 1403l-567 -167l-88 186l556 210z" />
    <glyph glyph-name="acircumflex" unicode="&#xe2;" 
d="M1026 1150h312v-1150h-312v160h-9q-125 -160 -425 -160q-99 0 -181 24t-136.5 62.5t-96 91.5t-64 105t-37 110.5t-18.5 100.5t-4 81q0 42 4 85t18 102t36.5 110.5t64 104t96 89.5t137 60.5t182.5 23.5q291 0 420 -169h13v169zM682 268q98 0 164 22.5t100 66.5t47.5 95.5
t13.5 122.5q0 51 -7.5 92.5t-29 82.5t-57 69t-94 45.5t-136.5 17.5q-85 0 -148.5 -24t-97 -57.5t-54 -79.5t-25.5 -79t-5 -67q0 -21 2.5 -43.5t11 -53.5t22.5 -59t39.5 -56.5t58.5 -48.5t83.5 -33t111.5 -13zM726 1358l-297 -103l-99 181l396 144l395 -144l-98 -181z" />
    <glyph glyph-name="atilde" unicode="&#xe3;" 
d="M1026 1150h312v-1150h-312v160h-9q-125 -160 -425 -160q-99 0 -181 24t-136.5 62.5t-96 91.5t-64 105t-37 110.5t-18.5 100.5t-4 81q0 42 4 85t18 102t36.5 110.5t64 104t96 89.5t137 60.5t182.5 23.5q291 0 420 -169h13v169zM682 268q98 0 164 22.5t100 66.5t47.5 95.5
t13.5 122.5q0 51 -7.5 92.5t-29 82.5t-57 69t-94 45.5t-136.5 17.5q-85 0 -148.5 -24t-97 -57.5t-54 -79.5t-25.5 -79t-5 -67q0 -21 2.5 -43.5t11 -53.5t22.5 -59t39.5 -56.5t58.5 -48.5t83.5 -33t111.5 -13zM1134 1289q-56 36 -120.5 44.5t-120.5 -4t-120.5 -28t-120.5 -28
t-120.5 -4t-120.5 44.5v212q66 -42 143 -46t148 15t141.5 38t147.5 15t143 -46v-213z" />
    <glyph glyph-name="adieresis" unicode="&#xe4;" 
d="M1026 1150h312v-1150h-312v160h-9q-125 -160 -425 -160q-99 0 -181 24t-136.5 62.5t-96 91.5t-64 105t-37 110.5t-18.5 100.5t-4 81q0 42 4 85t18 102t36.5 110.5t64 104t96 89.5t137 60.5t182.5 23.5q291 0 420 -169h13v169zM682 268q98 0 164 22.5t100 66.5t47.5 95.5
t13.5 122.5q0 51 -7.5 92.5t-29 82.5t-57 69t-94 45.5t-136.5 17.5q-85 0 -148.5 -24t-97 -57.5t-54 -79.5t-25.5 -79t-5 -67q0 -21 2.5 -43.5t11 -53.5t22.5 -59t39.5 -56.5t58.5 -48.5t83.5 -33t111.5 -13zM514 1261q-62 0 -106.5 44.5t-44.5 106.5t44.5 106t106.5 44
t106 -44t44 -106t-44 -106.5t-106 -44.5zM956 1261q-62 0 -106 44.5t-44 106.5t44 106t106 44t106.5 -44t44.5 -106t-44.5 -106.5t-106.5 -44.5z" />
    <glyph glyph-name="ccedilla" unicode="&#xe7;" horiz-adv-x="1320" 
d="M1266 409q-15 -178 -144 -288.5t-335 -135.5v-38q93 0 161 -41t68 -125q0 -145 -134.5 -194.5t-373.5 -1.5v139q168 0 231 9.5t63 50.5q0 49 -216 42v157q-114 11 -209.5 53.5t-168 112.5t-113 174t-40.5 231q0 136 48 246.5t131.5 181.5t194.5 109.5t239 38.5
q165 0 295 -50.5t210 -149t93 -232.5h-305q-44 152 -293 152q-152 0 -230 -74.5t-78 -221.5q0 -152 77 -224t231 -72q249 0 292 151h306z" />
    <glyph glyph-name="egrave" unicode="&#xe8;" horiz-adv-x="1335" 
d="M1275 498h-920q16 -116 90 -172t222 -56q257 0 304 126h299q-25 -188 -177 -292t-426 -104q-295 0 -453.5 146.5t-158.5 428.5q0 277 160.5 426t451.5 149q232 0 385 -107q63 -43 109.5 -99t69.5 -112t36.5 -117.5t12 -114.5t-4.5 -102zM367 702h601q-11 37 -27.5 64.5
t-49 55.5t-89 43t-135.5 15q-244 0 -300 -178zM1010 1372l-88 -187l-567 167l99 229z" />
    <glyph glyph-name="eacute" unicode="&#xe9;" horiz-adv-x="1335" 
d="M997 1352l-567 -167l-88 187l556 209zM1275 498h-920q16 -116 90 -172t222 -56q257 0 304 126h299q-25 -188 -177 -292t-426 -104q-295 0 -453.5 146.5t-158.5 428.5q0 277 160.5 426t451.5 149q232 0 385 -107q63 -43 109.5 -99t69.5 -112t36.5 -117.5t12 -114.5
t-4.5 -102zM367 702h601q-11 37 -27.5 64.5t-49 55.5t-89 43t-135.5 15q-244 0 -300 -178z" />
    <glyph glyph-name="ecircumflex" unicode="&#xea;" horiz-adv-x="1335" 
d="M1275 498h-920q16 -116 90 -172t222 -56q257 0 304 126h299q-25 -188 -177 -292t-426 -104q-295 0 -453.5 146.5t-158.5 428.5q0 277 160.5 426t451.5 149q232 0 385 -107q63 -43 109.5 -99t69.5 -112t36.5 -117.5t12 -114.5t-4.5 -102zM367 702h601q-11 37 -27.5 64.5
t-49 55.5t-89 43t-135.5 15q-244 0 -300 -178zM667 1358l-296 -103l-99 181l395 144l396 -144l-99 -181z" />
    <glyph glyph-name="edieresis" unicode="&#xeb;" horiz-adv-x="1335" 
d="M1275 498h-920q16 -116 90 -172t222 -56q257 0 304 126h299q-25 -188 -177 -292t-426 -104q-295 0 -453.5 146.5t-158.5 428.5q0 277 160.5 426t451.5 149q232 0 385 -107q63 -43 109.5 -99t69.5 -112t36.5 -117.5t12 -114.5t-4.5 -102zM367 702h601q-11 37 -27.5 64.5
t-49 55.5t-89 43t-135.5 15q-244 0 -300 -178zM408 1233q-62 0 -106.5 44t-44.5 106t44.5 106.5t106.5 44.5t106 -44.5t44 -106.5t-44 -106t-106 -44zM927 1233q-62 0 -106 44t-44 106t44 106.5t106 44.5t106.5 -44.5t44.5 -106.5t-44.5 -106t-106.5 -44z" />
    <glyph glyph-name="igrave" unicode="&#xec;" horiz-adv-x="765" 
d="M710 1418l-88 -186l-567 167l99 229zM627 0h-310v1142h310v-1142z" />
    <glyph glyph-name="iacute" unicode="&#xed;" horiz-adv-x="765" 
d="M611 1628l99 -229l-567 -167l-88 186zM471 0h-310v1142h310v-1142z" />
    <glyph glyph-name="icircumflex" unicode="&#xee;" horiz-adv-x="780" 
d="M538 0h-310v1142h310v-1142zM390 1540l335 -144l-83 -181l-252 103l-251 -103l-84 181z" />
    <glyph glyph-name="idieresis" unicode="&#xef;" horiz-adv-x="854" 
d="M582 0h-310v1142h310v-1142zM356 1411q0 -62 -44 -106.5t-106 -44.5t-106.5 44.5t-44.5 106.5t44.5 106t106.5 44t106 -44t44 -106zM648 1561q62 0 106.5 -44t44.5 -106t-44.5 -106.5t-106.5 -44.5t-106 44.5t-44 106.5t44 106t106 44z" />
    <glyph glyph-name="ntilde" unicode="&#xf1;" horiz-adv-x="1320" 
d="M1075 1297q-56 36 -118 48t-119.5 4.5t-117.5 -23l-120 -31t-117.5 -23t-119.5 4.5t-118 48v244q56 -36 118 -48t119.5 -4.5t117.5 23l120 31t117.5 23t119.5 -4.5t118 -48v-244zM766 1149q79 0 145 -14.5t114 -38t86.5 -59.5t63 -71.5t42.5 -82.5t27 -84.5t14 -84.5
t6 -75t1 -64v-575h-310v575v15q0 30 -0.5 47.5t-5.5 52t-14.5 56.5t-30 50t-49.5 44.5t-75 28.5t-104 12q-78 0 -135.5 -19.5t-90 -50t-52 -75.5t-25.5 -87t-6 -95v-554h-312v1149h312v-169h15q60 83 149.5 126t234.5 43z" />
    <glyph glyph-name="ograve" unicode="&#xf2;" horiz-adv-x="1368" 
d="M988 1421l-88 -187l-567 168l99 229zM684 1149q131 0 243 -35.5t199 -104.5t137 -180.5t50 -253.5q0 -144 -49.5 -256t-137 -180.5t-199.5 -103.5t-243 -35t-243 35.5t-199 105t-137 181t-50 253.5q0 141 50 252.5t137 180.5t199.5 105t242.5 36zM684 279q151 0 239.5 74
t88.5 222q0 150 -88 222.5t-240 72.5t-240 -72t-88 -223q0 -152 88 -224t240 -72z" />
    <glyph glyph-name="oacute" unicode="&#xf3;" horiz-adv-x="1368" 
d="M1012 1418l-567 -167l-88 187l556 209zM684 1149q131 0 243 -35.5t199 -104.5t137 -180.5t50 -253.5q0 -144 -49.5 -256t-137 -180.5t-199.5 -103.5t-243 -35t-243 35.5t-199 105t-137 181t-50 253.5q0 141 50 252.5t137 180.5t199.5 105t242.5 36zM684 279
q151 0 239.5 74t88.5 222q0 150 -88 222.5t-240 72.5t-240 -72t-88 -223q0 -152 88 -224t240 -72z" />
    <glyph glyph-name="ocircumflex" unicode="&#xf4;" horiz-adv-x="1368" 
d="M684 1149q131 0 243 -35.5t199 -104.5t137 -180.5t50 -253.5q0 -144 -49.5 -256t-137 -180.5t-199.5 -103.5t-243 -35t-243 35.5t-199 105t-137 181t-50 253.5q0 141 50 252.5t137 180.5t199.5 105t242.5 36zM684 279q151 0 239.5 74t88.5 222q0 150 -88 222.5t-240 72.5
t-240 -72t-88 -223q0 -152 88 -224t240 -72zM684 1358l-297 -103l-98 181l395 143l396 -143l-99 -181z" />
    <glyph glyph-name="divide" unicode="&#xf7;" horiz-adv-x="1144" 
d="M1090 599h-1035v281h1035v-281zM714 1021h-282v282h282v-282zM714 176h-282v282h282v-282z" />
    <glyph glyph-name="ugrave" unicode="&#xf9;" horiz-adv-x="1359" 
d="M992 1146h312v-1146h-312v168h-15q-123 -168 -404 -168q-100 0 -181.5 23.5t-134 60t-92 90t-60 103.5t-32.5 110t-15 101t-3 85v573h310v-573q0 -28 0.5 -45.5t6.5 -53t16.5 -60t32.5 -54.5t52.5 -48.5t79.5 -31.5t110 -13q78 0 137.5 19.5t95 50.5t58 75t30.5 87.5
t8 93.5v553zM991 1334l-88 -187l-567 167l99 229z" />
    <glyph glyph-name="uacute" unicode="&#xfa;" horiz-adv-x="1359" 
d="M1007 1372l-567 -167l-88 187l556 209zM992 1146h312v-1146h-312v168h-15q-123 -168 -404 -168q-100 0 -181.5 23.5t-134 60t-92 90t-60 103.5t-32.5 110t-15 101t-3 85v573h310v-573q0 -28 0.5 -45.5t6.5 -53t16.5 -60t32.5 -54.5t52.5 -48.5t79.5 -31.5t110 -13
q78 0 137.5 19.5t95 50.5t58 75t30.5 87.5t8 93.5v553z" />
    <glyph glyph-name="ucircumflex" unicode="&#xfb;" horiz-adv-x="1359" 
d="M992 1146h312v-1146h-312v168h-15q-123 -168 -404 -168q-100 0 -181.5 23.5t-134 60t-92 90t-60 103.5t-32.5 110t-15 101t-3 85v573h310v-573q0 -28 0.5 -45.5t6.5 -53t16.5 -60t32.5 -54.5t52.5 -48.5t79.5 -31.5t110 -13q78 0 137.5 19.5t95 50.5t58 75t30.5 87.5
t8 93.5v553zM693 1320l-297 -103l-99 181l396 144l395 -144l-98 -181z" />
    <glyph glyph-name="udieresis" unicode="&#xfc;" horiz-adv-x="1359" 
d="M992 1146h312v-1146h-312v168h-15q-123 -168 -404 -168q-100 0 -181.5 23.5t-134 60t-92 90t-60 103.5t-32.5 110t-15 101t-3 85v573h310v-573q0 -28 0.5 -45.5t6.5 -53t16.5 -60t32.5 -54.5t52.5 -48.5t79.5 -31.5t110 -13q78 0 137.5 19.5t95 50.5t58 75t30.5 87.5
t8 93.5v553zM420 1267q-62 0 -106.5 44.5t-44.5 106.5t44.5 106t106.5 44t106 -44t44 -106t-44 -106.5t-106 -44.5zM939 1267q-62 0 -106 44.5t-44 106.5t44 106t106 44t106.5 -44t44.5 -106t-44.5 -106.5t-106.5 -44.5z" />
    <glyph glyph-name="OE" unicode="&#x152;" horiz-adv-x="2500" 
d="M2445 1152h-867v-294h867v-282h-867v-291h867v-285h-867h-732h-1h-26h-1h-47v2q-377 13 -560 233q-48 55 -80 119.5t-41.5 100t-11.5 59.5q-23 102 -23 202q0 118 27 225v2q0 1 0.5 1t0.5 1q9 45 34 101q154 369 657 386l-3 2h1674v-282zM471 461q112 -171 361 -176
q249 5 360 174q68 111 68 257q0 50 -9 99.5t-29 104t-61 102.5t-98 79q-92 45 -231 48q-141 -3 -232 -49q-57 -31 -97.5 -78.5t-60.5 -102t-29 -104t-9 -99.5q0 -143 67 -255z" />
    <glyph glyph-name="oe" unicode="&#x153;" horiz-adv-x="2283" 
d="M2212 498h-900q0 -3 -2 -11t-2 -11q21 -105 94 -155.5t213 -50.5q258 0 305 126h299q-25 -188 -177.5 -292t-426.5 -104q-302 0 -459 154q-159 -154 -460 -154q-2 0 -5 0.5t-5 0.5t-5.5 -0.5t-5.5 -0.5q-334 0 -493 189q-39 44 -65 95.5t-33.5 80t-9.5 47.5
q-19 83 -19 162q0 93 22 180v2v2q8 36 28 81q130 310 570 310h11h11q305 0 463 -153q160 154 455 154q231 0 386 -108v1q63 -43 109 -99t69 -112t37 -117.5t12 -114.5t-5 -102h-11zM1615 880q-244 0 -300 -178h601q-11 37 -27.5 64.5t-49 55.5t-89 43t-135.5 15zM953 388
q51 81 51 186q0 81 -33.5 159t-113.5 120q-69 34 -171 35q-104 -1 -173 -35q-42 -22 -72 -56.5t-45.5 -74t-22 -76t-6.5 -72.5q0 -103 50 -185q83 -124 269 -127q185 3 267 126z" />
    <glyph glyph-name="Euro" unicode="&#x20ac;" horiz-adv-x="1351" 
d="M1081 469l215 -220q-37 -68 -74 -110.5t-96 -76t-145.5 -48t-212.5 -14.5q-221 0 -378 127t-211 366h-124v200h100q0 6 -0.5 17.5t-0.5 17.5t0.5 18t0.5 18h-100v200h124q54 236 212 364.5t377 128.5q63 0 115.5 -4t95.5 -14.5t75.5 -20.5t63.5 -30.5t50.5 -35
t45.5 -43.5t40 -46.5t41 -53.5l-213 -221q-40 189 -314 189q-106 0 -186 -55t-122 -158h490v-200h-530q0 -6 -0.5 -17.5t-0.5 -17.5q0 -12 2 -36h529v-200h-488q42 -103 121 -158t185 -55q145 0 218 49t95 140z" />
    <glyph glyph-name="trademark" unicode="&#x2122;" horiz-adv-x="1202" 
d="M55 1363v113h459v-113h-160v-402h-138v402h-161zM939 1476h207v-515h-128v380h-3l-108 -380h-96l-108 380h-3v-380h-125v515h208l77 -309h2z" />
    <glyph glyph-name="arrowleft" unicode="&#x2190;" horiz-adv-x="1478" 
d="M58 704l466 465h413l-339 -320h825v-292h-828l343 -324h-413l-470 470z" />
    <glyph glyph-name="arrowright" unicode="&#x2192;" horiz-adv-x="1478" 
d="M1276 555v-2h-2l-320 -320h-413l320 320h-806v292h808l-323 324h413l470 -470h-3z" />
    <glyph glyph-name="arrowdown" unicode="&#x2193;" horiz-adv-x="1046" 
d="M521 3l-466 465v414l320 -339v824h292v-827l324 343v-413l-470 -470v3z" />
    <glyph glyph-name="uni263a" unicode="&#x263a;" horiz-adv-x="1622" 
d="M311 959l-111 111l122 122l-122 122l111 112l123 -122l122 122l111 -112l-122 -122l122 -122l-111 -111l-122 122zM1067 959l-112 111l122 122l-122 122l112 112l122 -122l122 122l111 -112l-122 -122l122 -122l-111 -111l-122 122zM1370 756h196q0 -205 -101 -379
t-275 -275.5t-379 -101.5t-379 101.5t-275.5 275.5t-101.5 379h197q0 -151 75 -280t204 -204t280 -75t280 75t204 204t75 280z" />
    <glyph glyph-name="r.alt1" unicode="&#xf00a;" horiz-adv-x="993" 
d="M938 1149v-292h-571v-857h-312v1149h883z" />
    <glyph glyph-name="t.alt1" unicode="&#xf010;" horiz-adv-x="997" 
d="M568 884v-409v-23q0 -75 24 -104t88.5 -33t175.5 5q55 3 86 5v-304q-63 -21 -374 -21q-51 0 -92.5 9.5t-72 23.5t-54.5 39.5t-39 47.5t-25.5 57.5t-16 60t-8 64t-3 60.5t-0.5 59v2v461h-202v262q22 0 37.5 1t43.5 8t48.5 19t44.5 36.5t39.5 58.5t26 88t10.5 121h263v-332
h374v-262h-374z" />
    <glyph glyph-name="K.alt1" unicode="&#xf013;" horiz-adv-x="1437" 
d="M1383 1434l-662 -715l662 -719h-419l-453 493l-1 -2l-143 154v-645h-312v1434h312v-645l597 645h419z" />
    <glyph glyph-name="at.alt1" unicode="&#xf014;" horiz-adv-x="1802" 
d="M913 1567h7q38 0 66 -0.5t93.5 -7t117 -17.5t124 -35.5t128 -58t114.5 -87.5t97.5 -121.5t63 -162.5t24.5 -208q0 -265 -104.5 -427.5t-258.5 -162.5q-78 0 -132 18.5t-78.5 49t-34 59.5t-9.5 61v36h-7q-81 -105 -280 -105q-90 0 -158.5 30.5t-104 73t-57.5 99t-28 97
t-6 79.5q0 34 4.5 67.5t16 80t36.5 85t62 73t97.5 54.5t137.5 20q191 0 278 -112h9v112h205v-507q0 -96 42 -112q37 -12 75 43q60 87 60 251q0 230 -156 359t-455 129q-148 0 -263 -42.5t-186 -118t-107 -172t-36 -210.5q0 -115 31 -208.5t95 -166t171 -112.5t250 -40
q15 0 41 1t90.5 13t112.5 36q24 -35 55 -87t50 -87l19 -34q-4 -3 -13 -9t-42 -20.5t-72 -26.5t-104.5 -22.5t-139.5 -12.5q-57 -2 -114.5 2t-140 22t-153.5 49t-145.5 91.5t-126.5 141.5t-85.5 206t-33.5 278q0 122 26 226t68 178t103 134t122 98t134 66t130.5 41.5
t120 21.5t93.5 9.5t61 1.5zM904 574q65 0 108.5 15t65.5 44t31 63t9 81q0 43 -9 76t-31 63.5t-66 47t-108 16.5q-56 0 -98 -16t-64 -38t-35.5 -52.5t-17 -52.5t-3.5 -44q0 -21 3.5 -43t17.5 -52t36 -53t64 -39t97 -16z" />
    </font>
</defs>
</svg>
