<svg width="26" height="27" viewBox="0 0 26 27" fill="none" xmlns="http://www.w3.org/2000/svg">
<path d="M13 15.6641C14.7949 15.6641 16.25 14.209 16.25 12.4141C16.25 10.6191 14.7949 9.16406 13 9.16406C11.2051 9.16406 9.75 10.6191 9.75 12.4141C9.75 14.209 11.2051 15.6641 13 15.6641Z" stroke="black" stroke-linecap="round" stroke-linejoin="round"/>
<path d="M19.1291 18.5448L14.5325 23.1413C14.1262 23.5472 13.5755 23.7752 13.0012 23.7752C12.4269 23.7752 11.8762 23.5472 11.4699 23.1413L6.87224 18.5448C5.66023 17.3327 4.83485 15.7884 4.50048 14.1073C4.16611 12.4261 4.33777 10.6836 4.99374 9.09997C5.64971 7.51637 6.76054 6.16285 8.18576 5.21057C9.61098 4.25828 11.2866 3.75 13.0007 3.75C14.7147 3.75 16.3903 4.25828 17.8156 5.21057C19.2408 6.16285 20.3516 7.51637 21.0076 9.09997C21.6635 10.6836 21.8352 12.4261 21.5008 14.1073C21.1665 15.7884 20.3411 17.3327 19.1291 18.5448V18.5448Z" stroke="black" stroke-linecap="round" stroke-linejoin="round"/>
</svg>
