<svg width="26" height="27" viewBox="0 0 26 27" fill="none" xmlns="http://www.w3.org/2000/svg">
<path d="M10.834 15.6667L22.7506 3.75" stroke="black" stroke-linecap="round" stroke-linejoin="round"/>
<path d="M22.75 3.75L15.7083 23.25C15.6608 23.3537 15.5844 23.4416 15.4884 23.5032C15.3924 23.5649 15.2807 23.5976 15.1666 23.5976C15.0525 23.5976 14.9408 23.5649 14.8448 23.5032C14.7488 23.4416 14.6725 23.3537 14.625 23.25L10.8333 15.6667L3.24995 11.875C3.14623 11.8275 3.05834 11.7512 2.99672 11.6551C2.9351 11.5591 2.90234 11.4474 2.90234 11.3333C2.90234 11.2192 2.9351 11.1075 2.99672 11.0115C3.05834 10.9155 3.14623 10.8392 3.24995 10.7917L22.75 3.75Z" stroke="black" stroke-linecap="round" stroke-linejoin="round"/>
</svg>
