<svg width="30" height="30" viewBox="0 0 30 30" fill="none" xmlns="http://www.w3.org/2000/svg">
<path d="M18.5156 26.0156H11.4844C11.3555 26.0156 11.25 26.1211 11.25 26.25V27.1875C11.25 27.7061 11.6689 28.125 12.1875 28.125H17.8125C18.3311 28.125 18.75 27.7061 18.75 27.1875V26.25C18.75 26.1211 18.6445 26.0156 18.5156 26.0156ZM15 1.875C9.69434 1.875 5.39062 6.17871 5.39062 11.4844C5.39062 15.041 7.32422 18.1465 10.1953 19.8076V23.2031C10.1953 23.7217 10.6143 24.1406 11.1328 24.1406H18.8672C19.3857 24.1406 19.8047 23.7217 19.8047 23.2031V19.8076C22.6758 18.1465 24.6094 15.041 24.6094 11.4844C24.6094 6.17871 20.3057 1.875 15 1.875ZM18.7471 17.9824L17.6953 18.5918V22.0312H12.3047V18.5918L11.2529 17.9824C8.94727 16.6494 7.5 14.1943 7.5 11.4844C7.5 7.3418 10.8574 3.98438 15 3.98438C19.1426 3.98438 22.5 7.3418 22.5 11.4844C22.5 14.1943 21.0527 16.6494 18.7471 17.9824Z" fill="#2C3E50"/>
</svg>
