<svg width="26" height="26" viewBox="0 0 26 26" fill="none" xmlns="http://www.w3.org/2000/svg">
<g clip-path="url(#clip0_218_811)">
<path d="M23.0303 3.21181C21.6149 1.664 19.7275 0.8125 17.7149 0.8125C15.9754 0.8125 14.3284 1.4495 13 2.62194C11.6716 1.4495 10.0246 0.8125 8.28506 0.8125C6.2725 0.8125 4.38506 1.664 2.96969 3.21181C0.0934375 6.35619 0.0934375 11.4717 2.96969 14.6161L12.3996 24.9242C12.5539 25.0916 12.7717 25.1875 13 25.1875C13.2283 25.1875 13.4461 25.0916 13.6004 24.9234L23.0303 14.6153C25.9066 11.4717 25.9066 6.35619 23.0303 3.21181ZM21.8294 13.5192L13 23.1709L4.16975 13.5192C1.84681 10.9801 1.84681 6.84775 4.16975 4.30869C5.27394 3.10131 6.73481 2.4375 8.28506 2.4375C9.83531 2.4375 11.2962 3.10131 12.3996 4.30788C12.7075 4.64425 13.2917 4.64425 13.6004 4.30788C14.7038 3.10131 16.1647 2.4375 17.7149 2.4375C19.2652 2.4375 20.7269 3.10131 21.8302 4.30788C24.1532 6.84775 24.1532 10.9801 21.8294 13.5192Z" fill="#2C3E50"/>
<path d="M19.5 10.5623H17.4688L15.275 7.63734C15.106 7.41228 14.8354 7.29121 14.5519 7.31559C14.2716 7.34078 14.0246 7.50978 13.8978 7.76165L11.2361 13.086L9.5875 10.8873C9.43394 10.6826 9.19344 10.5623 8.9375 10.5623H6.5C6.0515 10.5623 5.6875 10.9263 5.6875 11.3748C5.6875 11.8233 6.0515 12.1873 6.5 12.1873H8.53125L10.725 15.1123C10.8794 15.3179 11.1207 15.4373 11.375 15.4373C11.3994 15.4373 11.4237 15.4365 11.4481 15.4341C11.7284 15.4089 11.9754 15.2399 12.1022 14.988L14.7639 9.66371L16.4125 11.8623C16.5653 12.0671 16.8066 12.1873 17.0625 12.1873H19.5C19.9485 12.1873 20.3125 11.8233 20.3125 11.3748C20.3125 10.9263 19.9485 10.5623 19.5 10.5623Z" fill="#2C3E50"/>
</g>
<defs>
<clipPath id="clip0_218_811">
<rect width="26" height="26" fill="white"/>
</clipPath>
</defs>
</svg>
