<svg width="28" height="28" viewBox="0 0 28 28" fill="none" xmlns="http://www.w3.org/2000/svg">
<g clip-path="url(#clip0_218_816)">
<path d="M8.75 28H19.25C19.4821 28 19.7046 27.9078 19.8687 27.7437C20.0328 27.5796 20.125 27.3571 20.125 27.125V21.4191C22.2613 19.6521 23.625 16.9824 23.625 14C23.625 11.0176 22.2613 8.34794 20.125 6.58087V0.875C20.125 0.642936 20.0328 0.420376 19.8687 0.256282C19.7046 0.0921872 19.4821 0 19.25 0L8.75 0C8.51794 0 8.29538 0.0921872 8.13128 0.256282C7.96719 0.420376 7.875 0.642936 7.875 0.875V6.58087C5.73869 8.34794 4.375 11.0176 4.375 14C4.375 16.9824 5.73869 19.6521 7.875 21.4191V27.125C7.875 27.3571 7.96719 27.5796 8.13128 27.7437C8.29538 27.9078 8.51794 28 8.75 28ZM18.375 26.25H9.625V22.5689C10.9388 23.2422 12.425 23.625 14 23.625C15.575 23.625 17.0612 23.2422 18.375 22.5689V26.25ZM9.625 1.75H18.375V5.43112C17.0612 4.75781 15.575 4.375 14 4.375C12.425 4.375 10.9388 4.75781 9.625 5.43112V1.75ZM6.125 14C6.125 9.65781 9.65781 6.125 14 6.125C18.3422 6.125 21.875 9.65781 21.875 14C21.875 18.3422 18.3422 21.875 14 21.875C9.65781 21.875 6.125 18.3422 6.125 14Z" fill="#2C3E50"/>
<path d="M13.6084 14.7827L17.1084 16.5327C17.316 16.6365 17.5564 16.6537 17.7766 16.5803C17.9968 16.507 18.1788 16.3491 18.2827 16.1416C18.3865 15.934 18.4037 15.6936 18.3303 15.4734C18.257 15.2532 18.0991 15.0712 17.8916 14.9673L14.875 13.4593V8.75C14.875 8.51794 14.7828 8.29538 14.6187 8.13128C14.4546 7.96719 14.2321 7.875 14 7.875C13.7679 7.875 13.5454 7.96719 13.3813 8.13128C13.2172 8.29538 13.125 8.51794 13.125 8.75V14C13.125 14.1625 13.1702 14.3218 13.2556 14.46C13.3409 14.5982 13.4631 14.71 13.6084 14.7827Z" fill="#2C3E50"/>
</g>
<defs>
<clipPath id="clip0_218_816">
<rect width="28" height="28" fill="white"/>
</clipPath>
</defs>
</svg>
