<svg width="71" height="67" viewBox="0 0 71 67" fill="none" xmlns="http://www.w3.org/2000/svg">
<path fill-rule="evenodd" clip-rule="evenodd" d="M22.8522 26.8558C22.8522 36.6695 30.8077 44.6251 40.6213 44.6251C50.4352 44.6251 58.3905 36.6695 58.3905 26.8558C58.3905 17.0421 50.4352 9.08655 40.6213 9.08655C30.8077 9.08655 22.8522 17.0421 22.8522 26.8558ZM21.1855 26.8558C21.1855 37.59 29.8873 46.2917 40.6213 46.2917C51.3554 46.2917 60.0571 37.59 60.0571 26.8558C60.0571 16.1216 51.3554 7.41992 40.6213 7.41992C29.8873 7.41992 21.1855 16.1216 21.1855 26.8558Z" fill="white"/>
<path fill-rule="evenodd" clip-rule="evenodd" d="M43.1589 26.4402L16.4051 53.1941L15.2266 52.0156L41.9803 25.2617L43.1589 26.4402Z" fill="white"/>
<path fill-rule="evenodd" clip-rule="evenodd" d="M14.2732 55.327L9.81423 59.786L8.63574 58.6074L13.0947 54.1484L14.2732 55.327Z" fill="white"/>
<path fill-rule="evenodd" clip-rule="evenodd" d="M43.9457 24.4746H33.3027V26.1412H42.2791V35.1177H43.9457V24.4746Z" fill="white"/>
</svg>
