<svg width="71" height="67" viewBox="0 0 71 67" fill="none" xmlns="http://www.w3.org/2000/svg">
<path fill-rule="evenodd" clip-rule="evenodd" d="M10.0166 8.33398H21.263V10.0006H12.8619L29.1504 26.2891C30.7399 24.9641 32.7849 24.167 35.0161 24.167C37.2471 24.167 39.2923 24.9642 40.8819 26.2892L57.1703 10.0006H48.7691V8.33398H60.0155V19.5804H58.3489V11.1791L42.0605 27.4677C43.3855 29.0572 44.1824 31.1023 44.1824 33.3335C44.1824 35.5645 43.3855 37.6097 42.0605 39.199L58.3489 55.4877V47.0865H60.0155V58.3329H48.7691V56.6663H57.1707L40.8819 40.3775C39.2923 41.7029 37.2475 42.4998 35.0161 42.4998C32.7848 42.4998 30.7398 41.7029 29.1502 40.3775L12.8616 56.6663H21.263V58.3329H10.0166V47.0865H11.6832V55.4877L27.9718 39.199C26.6467 37.6097 25.8496 35.5645 25.8496 33.3335C25.8496 31.1022 26.6468 29.0572 27.9719 27.4676L11.6832 11.179V19.5804H10.0166V8.33398ZM42.5161 33.3335C42.5161 37.4753 39.158 40.8335 35.0161 40.8335C30.874 40.8335 27.5162 37.4753 27.5162 33.3335C27.5162 29.1914 30.874 25.8336 35.0161 25.8336C39.158 25.8336 42.5161 29.1914 42.5161 33.3335Z" fill="white"/>
</svg>
