<svg width="71" height="67" viewBox="0 0 71 67" fill="none" xmlns="http://www.w3.org/2000/svg">
<path fill-rule="evenodd" clip-rule="evenodd" d="M19.3156 26.0423C14.4566 26.0423 10.5176 22.1033 10.5176 17.2443C10.5176 12.3853 14.4566 8.44634 19.3156 8.44634C24.1746 8.44634 28.1136 12.3853 28.1136 17.2443C28.1136 22.1033 24.1746 26.0423 19.3156 26.0423ZM18.4061 27.7566C13.0047 27.2955 8.76465 22.7651 8.76465 17.2443C8.76465 11.4172 13.4885 6.69336 19.3156 6.69336C24.8364 6.69336 29.3668 10.9335 29.8279 16.3348H46.4359C46.8566 13.0606 49.6545 10.5305 53.0433 10.5305C56.7224 10.5305 59.705 13.5131 59.705 17.1924C59.705 20.8717 56.7224 23.8543 53.0433 23.8543C49.6676 23.8543 46.8783 21.3437 46.4411 18.0878H29.8334C29.6351 20.595 28.5604 22.8555 26.9155 24.5631L48.4224 46.0701C49.6203 44.9157 51.2492 44.2059 53.044 44.2059C56.7234 44.2059 59.7061 47.1885 59.7061 50.8679C59.7061 54.5473 56.7234 57.5299 53.044 57.5299C49.3646 57.5299 46.382 54.5473 46.382 50.8679C46.382 49.6189 46.726 48.45 47.3239 47.4507L25.5964 25.7231C24.0533 26.868 22.1868 27.6017 20.1591 27.7621V44.2525C23.4657 44.6435 26.0304 47.4562 26.0304 50.8679C26.0304 54.5473 23.0477 57.5299 19.3684 57.5299C15.6892 57.5299 12.7065 54.5473 12.7065 50.8679C12.7065 47.5156 15.1828 44.7416 18.4061 44.2749V27.7566ZM53.0433 22.1014C55.7542 22.1014 57.952 19.9035 57.952 17.1924C57.952 14.4813 55.7542 12.2835 53.0433 12.2835C50.3322 12.2835 48.1343 14.4813 48.1343 17.1924C48.1343 19.9035 50.3322 22.1014 53.0433 22.1014ZM19.3684 55.7769C16.6573 55.7769 14.4595 53.5791 14.4595 50.8679C14.4595 48.1567 16.6573 45.9592 19.3684 45.9592C22.0796 45.9592 24.2774 48.1567 24.2774 50.8679C24.2774 53.5791 22.0796 55.7769 19.3684 55.7769ZM48.135 50.8679C48.135 48.1567 50.3328 45.9588 53.044 45.9588C55.7552 45.9588 57.9531 48.1567 57.9531 50.8679C57.9531 53.5791 55.7552 55.7769 53.044 55.7769C50.3328 55.7769 48.135 53.5791 48.135 50.8679Z" fill="white"/>
</svg>
