<svg width="30" height="30" viewBox="0 0 30 30" fill="none" xmlns="http://www.w3.org/2000/svg">
<path d="M13.125 15.5531L10.6969 13.125L9.375 14.4469L13.125 18.1969L20.625 10.6969L19.3031 9.375L13.125 15.5531Z" fill="#2C3E50"/>
<path d="M15 28.125L9.21001 25.0378C7.55938 24.1597 6.17904 22.8486 5.21712 21.2454C4.2552 19.6421 3.74802 17.8072 3.75001 15.9375V3.75C3.7505 3.25287 3.94821 2.77625 4.29973 2.42472C4.65125 2.0732 5.12788 1.8755 5.62501 1.875H24.375C24.8721 1.8755 25.3488 2.0732 25.7003 2.42472C26.0518 2.77625 26.2495 3.25287 26.25 3.75V15.9375C26.252 17.8072 25.7448 19.6421 24.7829 21.2454C23.821 22.8486 22.4406 24.1597 20.79 25.0378L15 28.125ZM5.62501 3.75V15.9375C5.62345 17.4673 6.03854 18.9687 6.82572 20.2804C7.6129 21.5922 8.74245 22.6648 10.0931 23.3831L15 25.9997L19.9069 23.3841C21.2577 22.6656 22.3873 21.5929 23.1745 20.281C23.9617 18.969 24.3767 17.4675 24.375 15.9375V3.75H5.62501Z" fill="#2C3E50"/>
</svg>
