<svg width="30" height="30" viewBox="0 0 30 30" fill="none" xmlns="http://www.w3.org/2000/svg">
<path d="M3.125 3.4375C3.125 3.18886 3.02623 2.9504 2.85041 2.77459C2.6746 2.59877 2.43614 2.5 2.1875 2.5C1.93886 2.5 1.7004 2.59877 1.52459 2.77459C1.34877 2.9504 1.25 3.18886 1.25 3.4375V26.5625C1.25 27.08 1.67 27.5 2.1875 27.5H25C25.2486 27.5 25.4871 27.4012 25.6629 27.2254C25.8387 27.0496 25.9375 26.8111 25.9375 26.5625C25.9375 26.3139 25.8387 26.0754 25.6629 25.8996C25.4871 25.7238 25.2486 25.625 25 25.625H3.125V3.4375Z" fill="#2C3E50"/>
<path d="M27.8499 9.72505C28.0155 9.54733 28.1057 9.31228 28.1014 9.0694C28.0971 8.82652 27.9987 8.59479 27.827 8.42302C27.6552 8.25126 27.4235 8.15287 27.1806 8.14858C26.9377 8.1443 26.7027 8.23445 26.5249 8.40005L19.3749 15.5501L14.7249 10.9001C14.5492 10.7245 14.3109 10.6259 14.0624 10.6259C13.814 10.6259 13.5757 10.7245 13.3999 10.9001L5.89995 18.4001C5.80784 18.4859 5.73396 18.5894 5.68272 18.7044C5.63148 18.8194 5.60393 18.9435 5.60171 19.0694C5.59949 19.1953 5.62264 19.3203 5.66979 19.437C5.71695 19.5538 5.78713 19.6598 5.87615 19.7488C5.96517 19.8379 6.07122 19.9081 6.18795 19.9552C6.30469 20.0024 6.42972 20.0255 6.5556 20.0233C6.68148 20.0211 6.80562 19.9935 6.92062 19.9423C7.03562 19.891 7.13912 19.8172 7.22495 19.7251L14.0624 12.8876L18.7124 17.5376C18.8882 17.7131 19.1265 17.8117 19.3749 17.8117C19.6234 17.8117 19.8617 17.7131 20.0374 17.5376L27.8499 9.72505Z" fill="#2C3E50"/>
</svg>
