<svg width="30" height="30" viewBox="0 0 30 30" fill="none" xmlns="http://www.w3.org/2000/svg">
<path d="M15.745 2.55374C17.0887 2.64874 18.3187 2.90499 19.1737 3.74874C20.0462 4.60874 20.3238 5.86874 20.3238 7.42499C20.3238 7.96499 20.2525 8.61874 20.1775 9.22249C20.145 9.47249 20.1138 9.71249 20.0825 9.93749L20.0125 10.4737H22.575C23.515 10.4737 24.3825 10.6087 25.12 10.9787C25.885 11.3612 26.4475 11.9625 26.8138 12.7675C27.5025 14.285 27.4912 16.5275 27.0925 19.51L27.0287 19.9975C26.8612 21.26 26.7188 22.3375 26.5337 23.2225C26.3262 24.2162 26.0412 25.0925 25.5137 25.785C24.4012 27.245 22.52 27.5 19.785 27.5C16.8713 27.5 14.685 26.9775 12.855 26.47L12.1025 26.2575C10.8238 25.895 9.7875 25.6 8.74 25.525C8.68721 26.0658 8.43499 26.5677 8.03246 26.9328C7.62994 27.2979 7.10593 27.5001 6.5625 27.5H4.6875C4.10734 27.5 3.55094 27.2695 3.1407 26.8593C2.73047 26.449 2.5 25.8926 2.5 25.3125V12.1875C2.5 10.98 3.48 9.99999 4.6875 9.99999H6.5625C7.11733 10 7.65141 10.2109 8.05663 10.5899C8.46184 10.9688 8.70791 11.4877 8.745 12.0412C8.96974 12.0189 9.19 11.9637 9.39875 11.8775C10.6 11.3587 12.8663 9.95999 12.8663 6.62749V5.31124C12.8663 3.78624 14.1187 2.43874 15.745 2.55374ZM8.75 23.6475C10.0738 23.7275 11.3488 24.0912 12.6475 24.4625L13.3575 24.6625C15.115 25.15 17.115 25.625 19.785 25.625C22.6313 25.625 23.54 25.2825 24.0225 24.6487C24.2925 24.295 24.5075 23.7512 24.6975 22.8387C24.8675 22.0262 25 21.0262 25.1712 19.7425L25.2337 19.2625C25.6338 16.2625 25.55 14.5187 25.1062 13.5437C24.9062 13.1037 24.6375 12.8337 24.2812 12.655C23.9 12.4637 23.3562 12.3487 22.575 12.3487H19.6125C18.7612 12.3487 17.9963 11.6362 18.0988 10.6887C18.1313 10.385 18.18 10.0175 18.23 9.64624L18.3175 8.98749C18.3925 8.38499 18.4487 7.83624 18.4487 7.42499C18.4487 6.01874 18.1825 5.40374 17.8575 5.08374C17.5138 4.74624 16.89 4.51499 15.6138 4.42374C15.175 4.39374 14.7413 4.76624 14.7413 5.31124V6.62749C14.7413 11.065 11.6313 12.9562 10.1412 13.5987C9.67625 13.7987 9.19875 13.8887 8.75 13.9237V23.6475ZM4.6875 25.625H6.5625C6.64538 25.625 6.72487 25.5921 6.78347 25.5335C6.84208 25.4749 6.875 25.3954 6.875 25.3125V12.1875C6.875 12.1046 6.84208 12.0251 6.78347 11.9665C6.72487 11.9079 6.64538 11.875 6.5625 11.875H4.6875C4.60462 11.875 4.52513 11.9079 4.46653 11.9665C4.40792 12.0251 4.375 12.1046 4.375 12.1875V25.3125C4.375 25.485 4.515 25.625 4.6875 25.625Z" fill="#2C3E50"/>
</svg>
